<svg width="41" height="41" viewBox="0 0 41 41" fill="none" xmlns="http://www.w3.org/2000/svg">
<g clip-path="url(#clip0_195_474)">
<path d="M0.333496 3.365C0.333496 1.7825 1.6485 0.5 3.271 0.5H37.396C39.0185 0.5 40.3335 1.7825 40.3335 3.365V37.635C40.3335 39.2175 39.0185 40.5 37.396 40.5H3.271C1.6485 40.5 0.333496 39.2175 0.333496 37.635V3.365ZM12.691 33.985V15.9225H6.6885V33.985H12.691ZM9.691 13.455C11.7835 13.455 13.086 12.07 13.086 10.335C13.0485 8.5625 11.786 7.215 9.731 7.215C7.676 7.215 6.3335 8.565 6.3335 10.335C6.3335 12.07 7.636 13.455 9.651 13.455H9.691ZM21.961 33.985V23.8975C21.961 23.3575 22.001 22.8175 22.161 22.4325C22.5935 21.355 23.581 20.2375 25.241 20.2375C27.4135 20.2375 28.281 21.8925 28.281 24.3225V33.985H34.2835V23.625C34.2835 18.075 31.3235 15.495 27.3735 15.495C24.1885 15.495 22.761 17.245 21.961 18.4775V18.54H21.921C21.9343 18.5191 21.9476 18.4983 21.961 18.4775V15.9225H15.961C16.036 17.6175 15.961 33.985 15.961 33.985H21.961Z" fill="#8000FF"/>
</g>
<defs>
<clipPath id="clip0_195_474">
<rect width="40" height="40" fill="white" transform="translate(0.333496 0.5)"/>
</clipPath>
</defs>
</svg>
