<svg width="41" height="41" viewBox="0 0 41 41" fill="none" xmlns="http://www.w3.org/2000/svg">
<g clip-path="url(#clip0_195_482)">
<path d="M0.791748 9.3875C1.04379 8.28311 1.66339 7.29703 2.54905 6.59077C3.43472 5.88451 4.53396 5.49992 5.66675 5.5H35.6667C36.7995 5.49992 37.8988 5.88451 38.7844 6.59077C39.6701 7.29703 40.2897 8.28311 40.5417 9.3875L20.6667 21.535L0.791748 9.3875ZM0.666748 12.2425V30.0025L15.1742 21.1075L0.666748 12.2425ZM17.5692 22.575L1.14425 32.6425C1.55006 33.4982 2.19056 34.2211 2.9912 34.7269C3.79184 35.2328 4.71968 35.5009 5.66675 35.5H35.6667C36.6137 35.5002 37.5412 35.2315 38.3413 34.7252C39.1415 34.2189 39.7815 33.4958 40.1867 32.64L23.7617 22.5725L20.6667 24.465L17.5692 22.5725V22.575ZM26.1592 21.11L40.6667 30.0025V12.2425L26.1592 21.1075V21.11Z" fill="#8000FF"/>
</g>
<defs>
<clipPath id="clip0_195_482">
<rect width="40" height="40" fill="white" transform="translate(0.666748 0.5)"/>
</clipPath>
</defs>
</svg>
