<svg width="40" height="41" viewBox="0 0 40 41" fill="none" xmlns="http://www.w3.org/2000/svg">
<g clip-path="url(#clip0_195_476)">
<path fill-rule="evenodd" clip-rule="evenodd" d="M4.71246 1.77738C5.14989 1.3406 5.67516 1.00177 6.25345 0.783354C6.83174 0.564933 7.44984 0.471906 8.0668 0.510436C8.68376 0.548967 9.28549 0.718175 9.83211 1.00685C10.3787 1.29552 10.8578 1.69707 11.2375 2.18488L15.725 7.94988C16.5475 9.00738 16.8375 10.3849 16.5125 11.6849L15.145 17.1599C15.0743 17.4435 15.0781 17.7405 15.156 18.0222C15.234 18.3038 15.3835 18.5605 15.59 18.7674L21.7325 24.9099C21.9395 25.1168 22.1967 25.2665 22.4788 25.3445C22.761 25.4225 23.0585 25.426 23.3425 25.3549L28.815 23.9874C29.4565 23.827 30.1261 23.8145 30.7732 23.9509C31.4202 24.0874 32.0278 24.3691 32.55 24.7749L38.315 29.2599C40.3875 30.8724 40.5775 33.9349 38.7225 35.7874L36.1375 38.3724C34.2875 40.2224 31.5225 41.0349 28.945 40.1274C22.3479 37.8062 16.3581 34.0295 11.42 29.0774C6.46818 24.1399 2.69148 18.151 0.369957 11.5549C-0.535043 8.97988 0.277457 6.21238 2.12746 4.36238L4.71246 1.77738Z" fill="#8000FF"/>
</g>
<defs>
<clipPath id="clip0_195_476">
<rect width="40" height="40" fill="white" transform="translate(0 0.5)"/>
</clipPath>
</defs>
</svg>
