<svg width="728" height="724" viewBox="0 0 728 724" fill="none" xmlns="http://www.w3.org/2000/svg">
<g filter="url(#filter0_f_8_119)">
<circle cx="362" cy="362" r="337" fill="url(#paint0_radial_8_119)"/>
</g>
<circle cx="404.071" cy="401.129" r="284.665" stroke="#8246BD" stroke-width="3.46448" stroke-linecap="round" stroke-linejoin="bevel" stroke-dasharray="28.87 53.12"/>
<rect x="270.968" y="289.047" width="30.3095" height="30.3095" transform="rotate(45 270.968 289.047)" fill="white" stroke="#C9DEFF" stroke-width="1.51548"/>
<rect x="270.968" y="294.405" width="22.7321" height="22.7321" transform="rotate(45 270.968 294.405)" fill="#C9DEFF"/>
<rect x="270.861" y="298.584" width="16.6702" height="16.6702" transform="rotate(45 270.861 298.584)" fill="white"/>
<path d="M220.238 548.431V359.825L248.464 331.598" stroke="white" stroke-width="5.13213"/>
<path d="M508.919 259.749L320.314 259.749L292.087 287.975" stroke="white" stroke-width="5.13213"/>
<circle cx="248.5" cy="332.424" r="8.07502" fill="white"/>
<circle cx="292.913" cy="288.011" r="8.07502" fill="white"/>
<path d="M240.451 569.14V380.535L268.677 352.308" stroke="white" stroke-width="5.13213"/>
<path d="M529.133 280.458L340.527 280.458L312.3 308.685" stroke="white" stroke-width="5.13213"/>
<circle cx="268.713" cy="353.133" r="8.07502" fill="white"/>
<circle cx="313.126" cy="308.721" r="8.07502" fill="white"/>
<path d="M195 530.682V342.077L223.227 313.85" stroke="white" stroke-width="5.13213"/>
<path d="M483.682 242L295.076 242L266.85 270.227" stroke="white" stroke-width="5.13213"/>
<circle cx="223.263" cy="314.675" r="8.07502" fill="white"/>
<circle cx="267.675" cy="270.263" r="8.07502" fill="white"/>
<g filter="url(#filter1_d_8_119)">
<g clip-path="url(#clip0_8_119)">
<rect x="85.9163" y="406.326" width="458.466" height="257.887" rx="7.81477" fill="white"/>
<rect x="330.453" y="508.94" width="133.358" height="110.387" rx="7.81477" transform="rotate(-0.439318 330.453 508.94)" fill="url(#paint1_linear_8_119)"/>
<rect x="167.19" y="507.918" width="106.281" height="14.0666" rx="7.03329" fill="#C2DAFF"/>
<rect x="167.19" y="529.799" width="82.8365" height="14.0666" rx="7.03329" fill="#C2DAFF"/>
<rect x="167.19" y="551.681" width="92.2142" height="14.0666" rx="7.03329" fill="#C2DAFF"/>
<rect x="167.19" y="600.568" width="57.8293" height="18.7554" rx="9.37772" fill="url(#paint2_linear_8_119)"/>
<rect x="207.827" y="459.466" width="82.8365" height="14.0666" rx="7.03329" fill="#B895FF"/>
<path d="M183.601 450.089L197.813 458.294V474.705L183.601 482.911L169.388 474.705V458.294L183.601 450.089Z" fill="#7F3FFF"/>
<path d="M183.601 457.903L191.045 462.202V470.798L183.601 475.096L176.156 470.798V462.202L183.601 457.903Z" fill="white"/>
<rect x="426.64" y="457.903" width="37.5109" height="14.0666" rx="7.03329" fill="#C2DAFF"/>
</g>
<rect x="82.0089" y="402.419" width="466.281" height="265.702" rx="11.7222" stroke="url(#paint3_linear_8_119)" stroke-width="7.81477" shape-rendering="crispEdges"/>
</g>
<g filter="url(#filter2_d_8_119)">
<g clip-path="url(#clip1_8_119)">
<rect x="388.865" y="117.619" width="203.43" height="390.332" rx="19.0716" fill="white"/>
<rect x="443.536" y="195.177" width="95.3579" height="11.4429" rx="5.72147" fill="#B895FF"/>
<rect x="458.794" y="215.52" width="64.8433" height="11.4429" rx="5.72147" fill="#B895FF"/>
<path d="M490.957 135.419L511.677 147.382V171.308L490.957 183.271L470.237 171.308V147.382L490.957 135.419Z" fill="#7F3FFF"/>
<path d="M490.957 146.813L501.81 153.079V165.611L490.957 171.877L480.103 165.611V153.079L490.957 146.813Z" fill="white"/>
</g>
<rect x="391.408" y="120.162" width="198.344" height="385.246" rx="16.5287" stroke="url(#paint4_linear_8_119)" stroke-width="5.08575" shape-rendering="crispEdges"/>
</g>
<g filter="url(#filter3_d_8_119)">
<rect x="346.907" y="307.064" width="183.087" height="82.6435" rx="6.35719" fill="url(#paint5_linear_8_119)"/>
</g>
<rect x="392.679" y="317.235" width="37.6854" height="4.83147" rx="2.41573" fill="#4F0998"/>
<rect x="392.679" y="326.898" width="37.6854" height="4.83147" rx="2.41573" fill="white"/>
<rect x="436.162" y="326.898" width="48.3147" height="4.83147" rx="2.41573" fill="white"/>
<rect x="392.679" y="336.561" width="25.1236" height="4.83147" rx="2.41573" fill="white"/>
<rect x="423.6" y="336.561" width="66.6742" height="4.83147" rx="2.41573" fill="white"/>
<rect x="357.079" y="315.964" width="25.4288" height="25.4288" rx="6.35719" fill="white"/>
<rect x="505.837" y="369.364" width="12.7144" height="12.7144" rx="1.27144" fill="#93FFAB"/>
<path d="M508.38 376.357L510.923 378.9L516.644 373.178" stroke="white" stroke-width="1.27144"/>
<rect x="488.037" y="369.364" width="12.7144" height="12.7144" rx="1.27144" fill="#E67272"/>
<path d="M491.215 372.543L497.573 378.9" stroke="white" stroke-width="1.27144"/>
<path d="M497.573 372.543L491.215 378.9" stroke="white" stroke-width="1.27144"/>
<g filter="url(#filter4_d_8_119)">
<rect x="458.794" y="237.134" width="183.087" height="57.2147" rx="6.35719" fill="white"/>
</g>
<rect x="507.108" y="253.663" width="37.6854" height="4.83147" rx="2.41573" fill="#B895FF"/>
<rect x="507.108" y="263.326" width="37.6854" height="4.83147" rx="2.41573" fill="#C2DAFF"/>
<rect x="550.591" y="263.326" width="48.3147" height="4.83147" rx="2.41573" fill="#C2DAFF"/>
<rect x="507.108" y="272.989" width="25.1236" height="4.83147" rx="2.41573" fill="#C2DAFF"/>
<rect x="538.03" y="272.989" width="66.6742" height="4.83147" rx="2.41573" fill="#C2DAFF"/>
<rect x="467.694" y="251.12" width="27.9716" height="27.9716" rx="13.9858" fill="#B895FF"/>
<g filter="url(#filter5_d_8_119)">
<rect x="438.451" y="406.236" width="183.087" height="57.2147" rx="6.35719" fill="white"/>
</g>
<rect x="486.765" y="422.764" width="37.6854" height="4.83147" rx="2.41573" fill="#B895FF"/>
<rect x="486.765" y="432.427" width="37.6854" height="4.83147" rx="2.41573" fill="#C2DAFF"/>
<rect x="530.248" y="432.427" width="48.3147" height="4.83147" rx="2.41573" fill="#C2DAFF"/>
<rect x="486.765" y="442.09" width="25.1236" height="4.83147" rx="2.41573" fill="#C2DAFF"/>
<rect x="517.687" y="442.09" width="66.6742" height="4.83147" rx="2.41573" fill="#C2DAFF"/>
<rect x="447.351" y="420.222" width="27.9716" height="27.9716" rx="13.9858" fill="#93FFAB"/>
<g filter="url(#filter6_d_8_119)">
<rect x="159" y="188.122" width="23.9049" height="53.122" fill="#E839AC"/>
<rect x="188.217" y="135" width="23.9049" height="106.244" fill="#E839AC"/>
<rect x="217.434" y="164.217" width="23.9049" height="77.027" fill="#E839AC"/>
</g>
<mask id="path-65-inside-1_8_119" fill="white">
<path d="M694.401 552.28C695.042 562.325 692.847 572.348 688.066 581.205C683.285 590.062 676.112 597.398 667.363 602.374C658.615 607.351 648.643 609.769 638.587 609.352C628.53 608.936 618.794 605.701 610.487 600.017C602.18 594.334 595.638 586.43 591.607 577.207C587.575 567.985 586.217 557.815 587.687 547.858C589.156 537.9 593.395 528.557 599.919 520.892C606.443 513.228 614.99 507.551 624.584 504.51L634.981 537.309C631.534 538.401 628.464 540.441 626.12 543.194C623.776 545.948 622.253 549.305 621.725 552.882C621.197 556.459 621.685 560.113 623.133 563.426C624.582 566.739 626.932 569.579 629.916 571.621C632.901 573.663 636.399 574.825 640.012 574.975C643.625 575.124 647.207 574.256 650.35 572.468C653.493 570.68 656.07 568.044 657.788 564.862C659.505 561.68 660.294 558.08 660.064 554.471L694.401 552.28Z"/>
</mask>
<path d="M694.401 552.28C695.042 562.325 692.847 572.348 688.066 581.205C683.285 590.062 676.112 597.398 667.363 602.374C658.615 607.351 648.643 609.769 638.587 609.352C628.53 608.936 618.794 605.701 610.487 600.017C602.18 594.334 595.638 586.43 591.607 577.207C587.575 567.985 586.217 557.815 587.687 547.858C589.156 537.9 593.395 528.557 599.919 520.892C606.443 513.228 614.99 507.551 624.584 504.51L634.981 537.309C631.534 538.401 628.464 540.441 626.12 543.194C623.776 545.948 622.253 549.305 621.725 552.882C621.197 556.459 621.685 560.113 623.133 563.426C624.582 566.739 626.932 569.579 629.916 571.621C632.901 573.663 636.399 574.825 640.012 574.975C643.625 575.124 647.207 574.256 650.35 572.468C653.493 570.68 656.07 568.044 657.788 564.862C659.505 561.68 660.294 558.08 660.064 554.471L694.401 552.28Z" fill="#FFA451" stroke="url(#paint6_linear_8_119)" stroke-width="7.5811" mask="url(#path-65-inside-1_8_119)"/>
<path d="M639.058 535.852L629.63 504.439C645.717 502.728 659.539 505.838 670.347 513.257C681.154 520.676 689.008 532.447 693.079 548.17L660.007 550.363C658.762 545.883 655.986 541.974 652.155 539.32C648.324 536.667 643.689 535.443 639.058 535.852Z" fill="#FFA451" fill-opacity="0.44" stroke="url(#paint7_linear_8_119)" stroke-width="1.26352"/>
<defs>
<filter id="filter0_f_8_119" x="0" y="0" width="724" height="724" filterUnits="userSpaceOnUse" color-interpolation-filters="sRGB">
<feFlood flood-opacity="0" result="BackgroundImageFix"/>
<feBlend mode="normal" in="SourceGraphic" in2="BackgroundImageFix" result="shape"/>
<feGaussianBlur stdDeviation="12.5" result="effect1_foregroundBlur_8_119"/>
</filter>
<filter id="filter1_d_8_119" x="53.0942" y="379.756" width="524.11" height="323.531" filterUnits="userSpaceOnUse" color-interpolation-filters="sRGB">
<feFlood flood-opacity="0" result="BackgroundImageFix"/>
<feColorMatrix in="SourceAlpha" type="matrix" values="0 0 0 0 0 0 0 0 0 0 0 0 0 0 0 0 0 0 127 0" result="hardAlpha"/>
<feOffset dy="6.25181"/>
<feGaussianBlur stdDeviation="12.5036"/>
<feComposite in2="hardAlpha" operator="out"/>
<feColorMatrix type="matrix" values="0 0 0 0 0.784 0 0 0 0 0.325 0 0 0 0 1 0 0 0 0.25 0"/>
<feBlend mode="normal" in2="BackgroundImageFix" result="effect1_dropShadow_8_119"/>
<feBlend mode="normal" in="SourceGraphic" in2="effect1_dropShadow_8_119" result="shape"/>
</filter>
<filter id="filter2_d_8_119" x="368.522" y="102.362" width="244.116" height="431.018" filterUnits="userSpaceOnUse" color-interpolation-filters="sRGB">
<feFlood flood-opacity="0" result="BackgroundImageFix"/>
<feColorMatrix in="SourceAlpha" type="matrix" values="0 0 0 0 0 0 0 0 0 0 0 0 0 0 0 0 0 0 127 0" result="hardAlpha"/>
<feOffset dy="5.08575"/>
<feGaussianBlur stdDeviation="10.1715"/>
<feComposite in2="hardAlpha" operator="out"/>
<feColorMatrix type="matrix" values="0 0 0 0 0.784 0 0 0 0 0.325 0 0 0 0 1 0 0 0 0.25 0"/>
<feBlend mode="normal" in2="BackgroundImageFix" result="effect1_dropShadow_8_119"/>
<feBlend mode="normal" in="SourceGraphic" in2="effect1_dropShadow_8_119" result="shape"/>
</filter>
<filter id="filter3_d_8_119" x="326.564" y="291.806" width="223.773" height="123.329" filterUnits="userSpaceOnUse" color-interpolation-filters="sRGB">
<feFlood flood-opacity="0" result="BackgroundImageFix"/>
<feColorMatrix in="SourceAlpha" type="matrix" values="0 0 0 0 0 0 0 0 0 0 0 0 0 0 0 0 0 0 127 0" result="hardAlpha"/>
<feOffset dy="5.08575"/>
<feGaussianBlur stdDeviation="10.1715"/>
<feComposite in2="hardAlpha" operator="out"/>
<feColorMatrix type="matrix" values="0 0 0 0 0 0 0 0 0 0 0 0 0 0 0 0 0 0 0.25 0"/>
<feBlend mode="normal" in2="BackgroundImageFix" result="effect1_dropShadow_8_119"/>
<feBlend mode="normal" in="SourceGraphic" in2="effect1_dropShadow_8_119" result="shape"/>
</filter>
<filter id="filter4_d_8_119" x="438.451" y="221.877" width="223.773" height="97.9007" filterUnits="userSpaceOnUse" color-interpolation-filters="sRGB">
<feFlood flood-opacity="0" result="BackgroundImageFix"/>
<feColorMatrix in="SourceAlpha" type="matrix" values="0 0 0 0 0 0 0 0 0 0 0 0 0 0 0 0 0 0 127 0" result="hardAlpha"/>
<feOffset dy="5.08575"/>
<feGaussianBlur stdDeviation="10.1715"/>
<feComposite in2="hardAlpha" operator="out"/>
<feColorMatrix type="matrix" values="0 0 0 0 0 0 0 0 0 0 0 0 0 0 0 0 0 0 0.25 0"/>
<feBlend mode="normal" in2="BackgroundImageFix" result="effect1_dropShadow_8_119"/>
<feBlend mode="normal" in="SourceGraphic" in2="effect1_dropShadow_8_119" result="shape"/>
</filter>
<filter id="filter5_d_8_119" x="418.108" y="390.979" width="223.773" height="97.9007" filterUnits="userSpaceOnUse" color-interpolation-filters="sRGB">
<feFlood flood-opacity="0" result="BackgroundImageFix"/>
<feColorMatrix in="SourceAlpha" type="matrix" values="0 0 0 0 0 0 0 0 0 0 0 0 0 0 0 0 0 0 127 0" result="hardAlpha"/>
<feOffset dy="5.08575"/>
<feGaussianBlur stdDeviation="10.1715"/>
<feComposite in2="hardAlpha" operator="out"/>
<feColorMatrix type="matrix" values="0 0 0 0 0 0 0 0 0 0 0 0 0 0 0 0 0 0 0.25 0"/>
<feBlend mode="normal" in2="BackgroundImageFix" result="effect1_dropShadow_8_119"/>
<feBlend mode="normal" in="SourceGraphic" in2="effect1_dropShadow_8_119" result="shape"/>
</filter>
<filter id="filter6_d_8_119" x="156.344" y="135" width="84.9952" height="108.9" filterUnits="userSpaceOnUse" color-interpolation-filters="sRGB">
<feFlood flood-opacity="0" result="BackgroundImageFix"/>
<feColorMatrix in="SourceAlpha" type="matrix" values="0 0 0 0 0 0 0 0 0 0 0 0 0 0 0 0 0 0 127 0" result="hardAlpha"/>
<feOffset dx="-2.6561" dy="2.6561"/>
<feComposite in2="hardAlpha" operator="out"/>
<feColorMatrix type="matrix" values="0 0 0 0 0.649863 0 0 0 0 0.530833 0 0 0 0 0.866667 0 0 0 1 0"/>
<feBlend mode="normal" in2="BackgroundImageFix" result="effect1_dropShadow_8_119"/>
<feBlend mode="normal" in="SourceGraphic" in2="effect1_dropShadow_8_119" result="shape"/>
</filter>
<radialGradient id="paint0_radial_8_119" cx="0" cy="0" r="1" gradientUnits="userSpaceOnUse" gradientTransform="translate(362 362) rotate(90) scale(337)">
<stop stop-color="#D7C2FF"/>
<stop offset="1" stop-color="#EEE6FF" stop-opacity="0.35"/>
</radialGradient>
<linearGradient id="paint1_linear_8_119" x1="463.812" y1="508.94" x2="324.647" y2="611.444" gradientUnits="userSpaceOnUse">
<stop stop-color="#3E2EFF"/>
<stop offset="1" stop-color="#C853FF"/>
</linearGradient>
<linearGradient id="paint2_linear_8_119" x1="225.019" y1="600.568" x2="204.487" y2="639.165" gradientUnits="userSpaceOnUse">
<stop stop-color="#3E2EFF"/>
<stop offset="1" stop-color="#C853FF"/>
</linearGradient>
<linearGradient id="paint3_linear_8_119" x1="315.149" y1="406.326" x2="315.149" y2="664.213" gradientUnits="userSpaceOnUse">
<stop stop-color="#CCB0FF"/>
<stop offset="0.0001" stop-color="#D6C0FF"/>
<stop offset="0.270833" stop-color="white"/>
<stop offset="1" stop-color="#AA8AE7"/>
</linearGradient>
<linearGradient id="paint4_linear_8_119" x1="490.58" y1="117.619" x2="490.58" y2="507.951" gradientUnits="userSpaceOnUse">
<stop stop-color="#CCB0FF"/>
<stop offset="0.0001" stop-color="#D6C0FF"/>
<stop offset="0.270833" stop-color="white"/>
<stop offset="1" stop-color="#AA8AE7"/>
</linearGradient>
<linearGradient id="paint5_linear_8_119" x1="529.994" y1="307.064" x2="425.647" y2="448.003" gradientUnits="userSpaceOnUse">
<stop stop-color="#B895FF"/>
<stop offset="1" stop-color="#DB8EFF"/>
</linearGradient>
<linearGradient id="paint6_linear_8_119" x1="640.811" y1="502" x2="640.811" y2="609.398" gradientUnits="userSpaceOnUse">
<stop stop-color="#FFE5CD"/>
<stop offset="1" stop-color="#FFC58F"/>
</linearGradient>
<linearGradient id="paint7_linear_8_119" x1="669.135" y1="555.38" x2="653.563" y2="497.262" gradientUnits="userSpaceOnUse">
<stop stop-color="#FFE5CD"/>
<stop offset="1" stop-color="#FFC58F"/>
</linearGradient>
<clipPath id="clip0_8_119">
<rect x="85.9163" y="406.326" width="458.466" height="257.887" rx="7.81477" fill="white"/>
</clipPath>
<clipPath id="clip1_8_119">
<rect x="388.865" y="117.619" width="203.43" height="390.332" rx="19.0716" fill="white"/>
</clipPath>
</defs>
</svg>
