<svg width="112" height="41" viewBox="0 0 112 41" fill="none" xmlns="http://www.w3.org/2000/svg">
<path d="M28.796 20.646L28.658 31.732H29.854C31.5713 28.0827 33.1507 24.188 34.592 20.048C36.0333 15.8773 36.754 12.7033 36.754 10.526C36.754 9.66733 36.5853 8.83933 36.248 8.042C38.5787 6.44733 40.7253 5.65 42.688 5.65C45.7547 5.65 47.288 7.38267 47.288 10.848C47.288 12.5653 46.8127 14.7427 45.862 17.38C44.942 19.9867 43.562 23.268 41.722 27.224C39.882 31.1493 38.9007 33.2653 38.778 33.572L39.422 36.102C36.7847 38.8007 33.488 40.15 29.532 40.15C25.576 40.15 23.0767 39.4293 22.034 37.988C19.458 39.4293 16.698 40.15 13.754 40.15C10.81 40.15 8.694 39.7207 7.406 38.862C6.118 38.0033 5.474 36.562 5.474 34.538L5.52 26.074C5.52 19.0513 4.66133 14.0987 2.944 11.216C2.14667 9.89733 1.16533 8.83933 0 8.042C2.08533 6.44733 4.47733 5.65 7.176 5.65C9.62933 5.65 11.454 6.616 12.65 8.548C13.846 10.4493 14.628 12.734 14.996 15.402C15.3027 17.8247 15.456 20.692 15.456 24.004L15.318 31.732H16.514C18.262 27.9293 19.734 23.4213 20.93 18.208C20.6233 15.264 19.9487 12.3047 18.906 9.33C20.0407 8.44067 21.0987 7.812 22.08 7.444C23.0613 7.04533 24.3647 6.846 25.99 6.846C29.3327 6.846 31.004 8.39466 31.004 11.492C31.004 13.332 30.268 16.3833 28.796 20.646ZM64.1966 4.132C64.1966 5.29733 63.5833 6.30933 62.3566 7.168C61.1299 7.996 59.7346 8.41 58.1706 8.41C56.6066 8.41 55.3646 8.10333 54.4446 7.49C53.5553 6.87666 53.1106 6.04867 53.1106 5.006C53.1106 3.59533 53.7699 2.49133 55.0886 1.694C56.4073 0.896666 57.8026 0.497999 59.2746 0.497999C60.7466 0.497999 61.9273 0.804666 62.8166 1.418C63.7366 2.03133 64.1966 2.936 64.1966 4.132ZM55.2266 40.15C53.3253 40.15 51.9453 39.6747 51.0866 38.724C50.2279 37.7733 49.7986 36.332 49.7986 34.4C49.7986 32.4373 50.7799 27.2087 52.7426 18.714L50.1666 14.85C53.9999 12.55 57.0206 11.4 59.2286 11.4C60.4859 11.4 61.3753 11.676 61.8966 12.228C62.4179 12.7493 62.6786 13.608 62.6786 14.804C62.6786 15.264 62.1113 17.9627 60.9766 22.9C59.8419 27.8373 59.2746 31.364 59.2746 33.48C59.2746 35.596 59.7499 37.068 60.7006 37.896C58.9833 39.3987 57.1586 40.15 55.2266 40.15ZM67.7246 22.394C67.5099 21.5353 67.4026 20.738 67.4026 20.002C67.4026 18.4993 67.8472 17.3647 68.7366 16.598C69.6259 15.8313 70.7759 15.448 72.1866 15.448C72.1866 13.8533 71.7726 12.1207 70.9446 10.25C72.4472 9.146 73.8119 8.318 75.0386 7.766C76.2959 7.18333 77.6146 6.892 78.9946 6.892C80.3746 6.892 81.3252 7.15267 81.8466 7.674C82.3986 8.16467 82.6746 8.93133 82.6746 9.974C82.6746 11.0167 82.4599 12.642 82.0306 14.85C83.2572 14.666 84.4992 14.4053 85.7566 14.068C85.9712 14.712 86.0786 15.54 86.0786 16.552C86.0786 17.564 85.6799 18.5147 84.8826 19.404C84.1159 20.2627 82.9812 20.692 81.4786 20.692H80.7886C79.6846 25.6907 79.1326 29.5393 79.1326 32.238C79.1326 34.9367 79.6079 36.8227 80.5586 37.896C78.8412 39.3987 77.0166 40.15 75.0846 40.15C73.1526 40.15 71.7572 39.5827 70.8986 38.448C70.0706 37.2827 69.6566 35.4887 69.6566 33.066C69.6566 31.594 70.1932 27.73 71.2666 21.474C70.0399 21.6887 68.8592 21.9953 67.7246 22.394ZM89.0495 34.446C89.0495 33.2193 89.3562 30.8427 89.9695 27.316C90.6135 23.7893 91.2729 20.5693 91.9475 17.656L89.5555 13.976C93.3889 12.2587 96.0722 11.4 97.6055 11.4C99.1695 11.4 99.9515 12.3813 99.9515 14.344C99.9515 15.4173 99.4455 17.656 98.4335 21.06L98.8935 21.29C101.102 14.6967 103.846 11.4 107.128 11.4C108.63 11.4 109.78 11.86 110.578 12.78C111.375 13.7 111.774 14.7273 111.774 15.862C111.774 17.5487 111.145 18.99 109.888 20.186C108.63 21.382 106.744 21.98 104.23 21.98C100.427 21.98 98.5255 25.89 98.5255 33.71C98.5255 35.6113 98.8475 37.0067 99.4915 37.896C97.5902 39.3987 95.8422 40.15 94.2475 40.15C90.7822 40.15 89.0495 38.2487 89.0495 34.446Z" fill="#8000FF"/>
</svg>
