<svg width="137" height="49" viewBox="0 0 137 49" fill="none" xmlns="http://www.w3.org/2000/svg">
<path d="M35.056 24.656L34.888 38.152H36.344C38.4347 33.7093 40.3573 28.968 42.112 23.928C43.8667 18.8507 44.744 14.9867 44.744 12.336C44.744 11.2907 44.5387 10.2827 44.128 9.312C46.9653 7.37067 49.5787 6.4 51.968 6.4C55.7013 6.4 57.568 8.50933 57.568 12.728C57.568 14.8187 56.9893 17.4693 55.832 20.68C54.712 23.8533 53.032 27.848 50.792 32.664C48.552 37.4427 47.3573 40.0187 47.208 40.392L47.992 43.472C44.7813 46.7573 40.768 48.4 35.952 48.4C31.136 48.4 28.0933 47.5227 26.824 45.768C23.688 47.5227 20.328 48.4 16.744 48.4C13.16 48.4 10.584 47.8773 9.016 46.832C7.448 45.7867 6.664 44.032 6.664 41.568L6.72 31.264C6.72 22.7147 5.67467 16.6853 3.584 13.176C2.61333 11.5707 1.41867 10.2827 0 9.312C2.53867 7.37067 5.45067 6.4 8.736 6.4C11.7227 6.4 13.944 7.576 15.4 9.928C16.856 12.2427 17.808 15.024 18.256 18.272C18.6293 21.2213 18.816 24.712 18.816 28.744L18.648 38.152H20.104C22.232 33.5227 24.024 28.0347 25.48 21.688C25.1067 18.104 24.2853 14.5013 23.016 10.88C24.3973 9.79733 25.6853 9.032 26.88 8.584C28.0747 8.09866 29.6613 7.856 31.64 7.856C35.7093 7.856 37.744 9.74133 37.744 13.512C37.744 15.752 36.848 19.4667 35.056 24.656ZM78.1524 4.552C78.1524 5.97067 77.4057 7.20267 75.9124 8.248C74.419 9.256 72.7204 9.76 70.8164 9.76C68.9124 9.76 67.4004 9.38666 66.2804 8.64C65.1977 7.89333 64.6564 6.88533 64.6564 5.616C64.6564 3.89867 65.459 2.55466 67.0644 1.584C68.6697 0.613332 70.3684 0.127999 72.1604 0.127999C73.9524 0.127999 75.3897 0.501332 76.4724 1.248C77.5924 1.99466 78.1524 3.096 78.1524 4.552ZM67.2324 48.4C64.9177 48.4 63.2377 47.8213 62.1924 46.664C61.147 45.5067 60.6244 43.752 60.6244 41.4C60.6244 39.0107 61.819 32.6453 64.2084 22.304L61.0724 17.6C65.739 14.8 69.4164 13.4 72.1044 13.4C73.635 13.4 74.7177 13.736 75.3524 14.408C75.987 15.0427 76.3044 16.088 76.3044 17.544C76.3044 18.104 75.6137 21.3893 74.2324 27.4C72.851 33.4107 72.1604 37.704 72.1604 40.28C72.1604 42.856 72.739 44.648 73.8964 45.656C71.8057 47.4853 69.5844 48.4 67.2324 48.4ZM82.4473 26.784C82.186 25.7387 82.0553 24.768 82.0553 23.872C82.0553 22.0427 82.5966 20.6613 83.6793 19.728C84.762 18.7947 86.162 18.328 87.8793 18.328C87.8793 16.3867 87.3753 14.2773 86.3673 12C88.1966 10.656 89.858 9.648 91.3513 8.976C92.882 8.26667 94.4873 7.912 96.1673 7.912C97.8473 7.912 99.0046 8.22933 99.6393 8.864C100.311 9.46133 100.647 10.3947 100.647 11.664C100.647 12.9333 100.386 14.912 99.8633 17.6C101.357 17.376 102.869 17.0587 104.399 16.648C104.661 17.432 104.791 18.44 104.791 19.672C104.791 20.904 104.306 22.0613 103.335 23.144C102.402 24.1893 101.021 24.712 99.1913 24.712H98.3513C97.0073 30.7973 96.3353 35.4827 96.3353 38.768C96.3353 42.0533 96.914 44.3493 98.0713 45.656C95.9806 47.4853 93.7593 48.4 91.4073 48.4C89.0553 48.4 87.3566 47.7093 86.3113 46.328C85.3033 44.9093 84.7993 42.7253 84.7993 39.776C84.7993 37.984 85.4526 33.28 86.7593 25.664C85.266 25.9253 83.8286 26.2987 82.4473 26.784ZM108.408 41.456C108.408 39.9627 108.781 37.0693 109.528 32.776C110.312 28.4827 111.115 24.5627 111.936 21.016L109.024 16.536C113.691 14.4453 116.957 13.4 118.824 13.4C120.728 13.4 121.68 14.5947 121.68 16.984C121.68 18.2907 121.064 21.016 119.832 25.16L120.392 25.44C123.08 17.4133 126.421 13.4 130.416 13.4C132.245 13.4 133.645 13.96 134.616 15.08C135.587 16.2 136.072 17.4507 136.072 18.832C136.072 20.8853 135.307 22.64 133.776 24.096C132.245 25.552 129.949 26.28 126.888 26.28C122.259 26.28 119.944 31.04 119.944 40.56C119.944 42.8747 120.336 44.5733 121.12 45.656C118.805 47.4853 116.677 48.4 114.736 48.4C110.517 48.4 108.408 46.0853 108.408 41.456Z" fill="white"/>
</svg>
