<?xml version="1.0" encoding="UTF-8"?>
<svg version="1.1" xmlns="http://www.w3.org/2000/svg" width="100" height="100">
<path d="M0 0 C5.16836432 0.87599395 8.93580735 1.59483997 12.16015625 6.1328125 C15.6768437 13.95130831 12.14569151 25.75511285 11 34 C13.97 33.505 13.97 33.505 17 33 C18.78409874 23.28260885 20.39543966 13.59246883 21.5703125 3.78125 C22 1 22 1 23 0 C25.53049402 -0.07313567 28.03304837 -0.09247527 30.5625 -0.0625 C31.62887695 -0.05573242 31.62887695 -0.05573242 32.71679688 -0.04882812 C34.47790013 -0.03700864 36.23896036 -0.01907263 38 0 C37.38326383 9.20575772 36.2006442 18.26567522 34.75 27.375 C34.65380371 28.03967285 34.55760742 28.7043457 34.45849609 29.38916016 C32.45430347 43.22314187 32.45430347 43.22314187 27 48 C22.90189901 50.04905049 17.69192814 49.31721725 13.1875 49.375 C11.5468457 49.43107422 11.5468457 49.43107422 9.87304688 49.48828125 C1.86631736 49.57610644 1.86631736 49.57610644 -2.13671875 46.9140625 C-5.86605524 41.08159914 -6.29298467 35.91627019 -5.13671875 29.23828125 C-5.0252803 28.52520309 -4.91384186 27.81212494 -4.79902649 27.07743835 C-4.44258141 24.81994258 -4.06522189 22.56652222 -3.6875 20.3125 C-3.44461977 18.78862503 -3.20307092 17.26453722 -2.96289062 15.74023438 C-1.08609616 3.9710194 -1.08609616 3.9710194 0 0 Z " fill="#BE0779" transform="translate(34,17)"/>
<path d="M0 0 C4.62 0 9.24 0 14 0 C15.04852931 3.14558794 14.96947052 4.37093436 14.47094727 7.56323242 C14.33072647 8.48396042 14.19050568 9.40468842 14.04603577 10.35331726 C13.88775803 11.34402725 13.72948029 12.33473724 13.56640625 13.35546875 C13.40961899 14.37224197 13.25283173 15.3890152 13.09129333 16.43659973 C12.58835752 19.6879753 12.07554954 22.93770652 11.5625 26.1875 C11.22005245 28.38987288 10.87824745 30.59234578 10.53710938 32.79492188 C9.69886138 38.1978039 8.85175558 43.59923164 8 49 C3.05 49 -1.9 49 -7 49 C-4.9485489 32.61947382 -2.57198968 16.30667568 0 0 Z " fill="#A40A80" transform="translate(16,17)"/>
<path d="M0 0 C5.69210497 0.85577854 9.25459718 1.73097634 12.875 6.4375 C14.57717192 11.82771109 13.76651414 16.45886342 13 22 C12.90412598 22.76231934 12.80825195 23.52463867 12.70947266 24.31005859 C12.38921229 26.83490197 12.04237552 29.35480283 11.6875 31.875 C11.58228027 32.68348389 11.47706055 33.49196777 11.36865234 34.32495117 C10.5940994 39.43477548 9.34576492 42.89468995 6 47 C2.68629 49.20914 1.6553979 49.22481553 -2.1875 49.125 C-3.08855469 49.10695312 -3.98960938 49.08890625 -4.91796875 49.0703125 C-5.60503906 49.04710937 -6.29210937 49.02390625 -7 49 C-5.07531986 32.59365396 -2.72036179 16.29307597 0 0 Z " fill="#D8056D" transform="translate(75,17)"/>
<path d="M0 0 C1.39456452 0.00667256 2.78911118 0.01863093 4.18359375 0.03515625 C4.89451172 0.03966797 5.60542969 0.04417969 6.33789062 0.04882812 C8.09899388 0.06064761 9.86005411 0.07858362 11.62109375 0.09765625 C11.12982446 6.46325198 10.62453628 12.79030318 9.62109375 19.09765625 C9.29109375 19.09765625 8.96109375 19.09765625 8.62109375 19.09765625 C8.59388199 17.20190374 8.57460239 15.30603646 8.55859375 13.41015625 C8.54699219 12.35441406 8.53539063 11.29867188 8.5234375 10.2109375 C8.62109375 7.09765625 8.62109375 7.09765625 9.62109375 2.09765625 C5.99109375 2.42765625 2.36109375 2.75765625 -1.37890625 3.09765625 C-1.66765625 4.37640625 -1.95640625 5.65515625 -2.25390625 6.97265625 C-2.91993108 9.9221948 -3.18093222 10.89968222 -5.37890625 13.09765625 C-5.23857514 11.11809184 -5.09149395 9.13900484 -4.94140625 7.16015625 C-4.86019531 6.05800781 -4.77898438 4.95585937 -4.6953125 3.8203125 C-4.23055771 -0.17887377 -4.15108114 0.11997344 0 0 Z " fill="#C90E5F" transform="translate(60.37890625,16.90234375)"/>
</svg>
