<?xml version="1.0" standalone="no"?>
<!DOCTYPE svg PUBLIC "-//W3C//DTD SVG 20010904//EN"
 "http://www.w3.org/TR/2001/REC-SVG-20010904/DTD/svg10.dtd">
<svg version="1.0" xmlns="http://www.w3.org/2000/svg"
 width="1280.000000pt" height="720.000000pt" viewBox="0 0 1280.000000 720.000000"
 preserveAspectRatio="xMidYMid meet">
<metadata>
Created by potrace 1.16, written by Peter Selinger 2001-2019
</metadata>
<g transform="translate(0.000000,720.000000) scale(0.100000,-0.100000)"
fill="#000000" stroke="none">
<path d="M3670 5284 c-190 -13 -365 -28 -390 -32 l-45 -7 -5 -50 c-4 -45 -7
-50 -27 -48 -15 2 -23 -3 -23 -12 0 -8 -9 -15 -20 -15 -25 0 -25 -4 -1 -54 17
-38 20 -90 31 -676 6 -349 12 -641 13 -648 1 -22 40 -42 175 -89 157 -55 320
-95 477 -117 66 -10 135 -20 153 -22 38 -6 43 5 -46 -109 -34 -45 -54 -82 -58
-107 -4 -21 -10 -41 -14 -43 -4 -3 -24 28 -43 69 -23 48 -55 94 -94 134 -84
86 -126 97 -338 89 -219 -8 -252 -17 -320 -79 -66 -60 -96 -109 -130 -208 -91
-267 -32 -618 133 -801 54 -59 54 -59 25 -59 -29 0 -61 -15 -52 -24 9 -10 141
-34 249 -47 72 -8 188 -10 368 -6 144 4 262 3 262 -2 0 -4 -36 -11 -80 -14
-45 -4 -88 -11 -98 -16 -9 -6 -12 -11 -7 -11 6 0 175 -27 375 -59 201 -33 469
-75 595 -95 127 -20 253 -42 280 -49 32 -7 143 -12 302 -12 248 0 253 0 275
-22 l22 -23 -29 0 c-32 0 -95 -20 -95 -31 0 -12 114 -39 281 -66 146 -24 191
-27 409 -27 135 0 263 5 285 10 45 11 59 38 25 49 -49 16 -3 14 166 -5 379
-43 533 -59 629 -67 l100 -8 -110 -6 c-60 -4 -139 -10 -175 -14 -36 -5 -182
-8 -326 -7 -143 1 -273 -2 -290 -7 l-29 -8 25 -7 c14 -3 84 -15 155 -26 72
-12 198 -32 280 -45 369 -60 668 -105 766 -116 99 -11 114 -10 240 14 74 14
229 40 344 57 116 17 316 47 445 66 425 64 483 73 665 99 99 14 234 35 300 45
363 58 926 138 992 140 4 0 1 5 -7 10 -13 7 -131 22 -655 83 -29 3 -29 3 -5 9
14 4 65 14 113 22 48 9 116 28 151 42 60 24 68 24 147 15 50 -7 87 -7 92 -2 5
5 52 7 103 4 87 -6 96 -4 114 15 12 12 27 18 38 15 11 -2 23 0 26 6 9 13 -34
31 -75 31 l-29 0 0 194 0 194 -37 6 c-131 21 -1110 80 -1139 69 -22 -8 -17 13
19 69 29 48 32 60 32 134 0 95 -18 143 -44 120 -15 -12 -89 -24 -306 -46 -74
-8 -84 -7 -130 16 -27 14 -80 36 -118 49 -37 13 -87 33 -110 44 -62 29 -79 35
-107 37 -14 1 -34 5 -45 7 -11 3 -29 6 -39 6 -12 1 0 11 30 27 66 35 66 36 6
28 -29 -4 -52 -3 -52 2 0 5 -27 20 -60 33 -50 20 -65 22 -86 13 -14 -7 -48
-12 -77 -12 l-52 0 90 45 c50 24 99 44 109 45 11 0 17 3 14 6 -3 3 -41 -2 -83
-11 -77 -16 -77 -16 -132 10 -60 27 -97 31 -156 14 -50 -14 -69 -6 -32 13 17
8 52 27 79 41 27 15 56 27 65 27 12 0 13 2 3 9 -7 4 -36 2 -65 -6 -72 -18 -96
-17 -157 13 -41 20 -65 25 -97 21 l-43 -4 24 18 c12 10 42 26 66 35 39 16 41
18 21 26 -13 4 -30 4 -40 -1 -42 -23 -117 -24 -175 -2 -31 11 -70 21 -86 21
-45 0 -36 15 23 40 47 20 50 24 30 31 -14 5 -48 2 -90 -8 -65 -16 -68 -16
-129 5 -35 12 -70 22 -79 22 -17 0 -214 -80 -420 -170 -102 -45 -245 -112
-475 -223 -91 -43 -98 -45 -155 -39 -33 4 -59 12 -58 17 10 43 14 96 9 113 -8
23 -91 48 -130 38 -14 -3 -26 -2 -28 4 -5 14 -100 30 -119 19 -12 -6 -19 -4
-22 5 -3 7 -22 17 -42 20 -31 6 -42 3 -61 -15 l-23 -22 -12 27 c-7 15 -23 29
-38 32 -14 3 -42 10 -61 14 -19 5 -55 11 -80 14 -43 6 -46 5 -74 -34 -17 -22
-33 -37 -36 -33 -4 5 -12 27 -19 51 -9 31 -17 42 -31 42 -15 0 -22 -12 -32
-61 l-12 -61 -51 7 c-27 3 -52 8 -54 11 -2 2 10 27 28 55 30 49 35 79 11 79
-6 0 -21 -17 -33 -37 l-22 -38 -5 40 c-7 52 -32 58 -57 13 l-18 -33 -3 35 c-2
19 -9 38 -15 42 -9 6 -78 18 -127 23 -9 0 -21 5 -29 9 -17 11 -32 -5 -40 -46
l-7 -33 -27 47 c-46 77 -68 70 -82 -26 l-8 -48 -40 6 c-23 4 -43 9 -46 11 -6
6 18 139 34 190 11 33 17 39 37 37 80 -12 468 -81 733 -132 67 -13 112 -16
135 -11 28 6 312 148 394 197 14 9 20 26 23 65 4 49 2 57 -24 85 -28 30 -32
46 -102 468 -40 241 -79 449 -87 464 -8 15 -14 34 -14 42 0 32 -60 138 -110
195 -58 66 -64 68 -210 85 -47 6 -96 15 -109 21 -17 7 -27 7 -35 -1 -5 -5 -46
-10 -90 -10 -70 0 -90 -4 -146 -31 -86 -41 -215 -50 -520 -38 -573 22 -757 29
-782 29 -24 0 -27 4 -30 43 -3 39 -5 42 -33 43 -16 1 -185 -9 -375 -22z m160
-177 c0 -17 -8 -25 -32 -32 -30 -9 -33 -14 -36 -52 l-3 -43 35 0 c45 0 48 -11
44 -145 l-3 -100 -45 0 -45 0 -3 58 c-3 60 14 82 20 25 2 -25 8 -34 26 -36 21
-3 22 0 22 72 l0 76 -35 0 -35 0 0 94 0 95 38 4 c20 2 40 4 45 5 4 1 7 -8 7
-21z m140 -171 c0 -209 1 -206 -54 -206 -43 0 -46 14 -46 205 0 100 3 185 7
188 3 4 26 7 50 7 l43 0 0 -194z m-270 112 c0 -53 -9 -99 -30 -168 -17 -51
-30 -95 -30 -96 0 -2 15 -4 33 -6 24 -2 33 -8 35 -25 3 -21 0 -23 -47 -23 -34
0 -51 4 -51 13 0 6 16 66 35 132 19 66 35 137 35 158 0 34 -3 38 -22 35 -18
-2 -24 -11 -26 -35 -5 -54 -22 -37 -22 21 0 59 5 64 58 65 l32 1 0 -72z m-130
37 c0 -20 -5 -25 -25 -25 -25 0 -26 -2 -23 -57 3 -51 6 -58 26 -61 14 -2 22
-10 22 -22 0 -12 -8 -20 -22 -22 -21 -3 -23 -8 -23 -63 0 -58 1 -60 28 -63 23
-3 28 -8 25 -25 -2 -17 -11 -23 -40 -25 l-37 -3 -3 163 c-4 229 -4 228 38 228
30 0 34 -3 34 -25z m726 -13 c6 -4 14 -14 17 -22 4 -10 6 -8 6 8 1 18 7 22 34
22 18 0 38 -5 45 -12 9 -9 15 -9 24 0 14 14 78 16 78 2 0 -5 -11 -10 -25 -10
-41 0 -29 -18 15 -22 32 -3 40 0 40 13 0 15 12 17 90 17 85 0 92 -2 110 -26
l20 -25 -2 24 c-3 22 0 24 32 21 19 -1 60 -3 90 -3 30 0 49 -2 42 -5 -8 -4
-11 -17 -6 -40 8 -44 -2 -44 -20 1 -16 37 -40 46 -50 19 -3 -8 -1 -24 4 -35
14 -25 -1 -24 -23 2 -18 21 -44 21 -39 -1 2 -7 -5 -9 -18 -5 -11 4 -20 2 -20
-4 0 -14 -55 -14 -81 -1 -10 6 -19 17 -19 25 0 17 -16 20 -24 6 -3 -5 -15 -7
-26 -4 -12 3 -22 0 -25 -8 -7 -18 -115 -26 -115 -8 0 7 10 9 30 6 17 -4 30 -2
30 4 0 11 -10 15 -63 24 -37 6 -38 6 -31 -22 l7 -28 -22 23 c-12 12 -28 22
-36 22 -9 0 -15 -10 -15 -22 -1 -22 -2 -22 -14 -5 -12 15 -14 16 -20 2 -6 -16
-61 -21 -83 -7 -12 7 -33 54 -33 73 0 11 80 12 96 1z m454 -781 c0 -14 -24
-77 -79 -212 -37 -90 -58 -129 -74 -136 -12 -6 -51 -32 -86 -59 -35 -27 -80
-58 -100 -69 -19 -11 -42 -33 -51 -50 -11 -19 -27 -32 -47 -36 -42 -8 -53 -17
-69 -54 -10 -26 -21 -34 -49 -39 -27 -5 -41 -16 -60 -46 -14 -22 -30 -40 -35
-40 -10 0 -19 665 -10 681 18 28 660 87 660 60z m1239 -1025 c64 -47 141 -159
141 -205 0 -6 -58 49 -130 121 -71 71 -130 134 -130 139 0 14 67 -17 119 -55z
m-2849 -385 c0 -27 56 -136 90 -175 18 -20 31 -39 28 -41 -3 -3 -27 2 -54 11
-27 10 -54 18 -61 20 -21 5 -65 105 -70 162 -5 48 -4 55 10 49 9 -3 18 1 22
11 6 15 8 15 21 -2 8 -11 14 -27 14 -35z m2476 -316 c25 -82 89 -173 146 -210
26 -16 47 -34 47 -39 1 -12 -75 1 -109 19 -16 8 -35 12 -43 9 -25 -9 -84 69
-106 141 -12 37 -21 79 -21 94 1 23 2 24 14 9 11 -15 14 -13 25 19 16 42 23
36 47 -42z"/>
<path d="M3897 5073 c-3 -5 -2 -72 1 -151 5 -138 6 -143 26 -140 20 3 21 9 24
151 l3 147 -25 0 c-14 0 -27 -3 -29 -7z"/>
<path d="M6780 4064 c-71 -14 -115 -34 -77 -34 28 0 19 -14 -23 -38 -22 -12
-40 -26 -40 -30 0 -5 51 -13 113 -20 61 -6 150 -21 196 -33 52 -13 86 -17 90
-11 9 14 121 68 156 76 53 11 284 -22 450 -64 311 -79 577 -178 900 -334 154
-74 501 -259 550 -292 11 -8 30 -14 42 -14 13 0 31 -4 41 -9 9 -5 31 -14 47
-20 17 -7 35 -21 40 -34 17 -37 73 -67 126 -67 51 0 68 12 49 35 -48 57 -553
337 -840 465 -325 145 -757 306 -951 354 -119 30 -272 47 -307 34 -13 -4 -54
-11 -91 -14 -70 -7 -106 5 -139 45 -18 22 -230 25 -332 5z m81 -33 l-24 -18
27 -7 c16 -4 46 0 73 9 31 11 49 13 56 6 7 -7 5 -12 -6 -17 -9 -3 -14 -10 -11
-15 7 -12 71 -11 95 2 11 5 37 9 57 7 l37 -3 -68 -32 -68 -32 -67 14 c-37 7
-104 19 -149 25 -46 7 -83 16 -83 21 0 11 32 28 84 44 60 19 75 18 47 -4z"/>
<path d="M6566 3803 c-3 -3 -6 -24 -6 -45 0 -38 0 -38 40 -38 25 0 40 5 40 13
0 9 2 9 8 0 4 -7 16 -12 27 -13 11 0 68 -3 128 -6 73 -4 107 -2 107 5 0 6 -7
11 -15 11 -8 0 -15 5 -15 10 0 6 9 10 19 10 11 0 23 5 27 11 12 19 -14 32 -72
35 -51 3 -56 1 -51 -16 3 -13 0 -20 -10 -20 -10 0 -12 6 -8 20 6 18 2 20 -39
20 -35 0 -49 -5 -58 -20 -7 -11 -16 -20 -20 -20 -4 0 -10 9 -13 20 -9 29 -33
24 -37 -7 -2 -17 -9 -28 -18 -28 -10 0 -14 8 -12 27 2 26 -9 43 -22 31z"/>
</g>
</svg>
