<svg width="222" height="76" viewBox="0 0 222 76" fill="none" xmlns="http://www.w3.org/2000/svg">
<g clip-path="url(#clip0_367_853)">
<path fill-rule="evenodd" clip-rule="evenodd" d="M119.251 6.45811C119.249 5.99559 119.246 5.51719 119.246 5.01611C118.96 5.21166 118.704 5.40099 118.464 5.57843C117.977 5.93782 117.557 6.24842 117.092 6.46308C115.68 7.11521 115.03 8.10334 115.3 9.66773C115.4 10.2476 115.129 10.5403 114.518 10.4897C114.36 10.476 114.201 10.482 114.042 10.4879C113.969 10.4906 113.897 10.4933 113.824 10.4942C113.008 10.5024 112.625 10.4372 112.446 10.5982C112.269 10.7573 112.29 11.1373 112.287 12.027C112.28 13.9129 112.282 13.9129 114.155 13.9346C115.295 13.948 115.295 13.9481 115.314 15.0562V15.0826C115.328 15.8385 115.336 16.5949 115.345 17.3513C115.366 19.3117 115.387 21.2726 115.501 23.2279C115.625 25.3342 116.555 27.0648 118.746 27.6645C119.709 27.9284 120.731 27.9906 121.743 28.0521C121.915 28.0626 122.088 28.0731 122.259 28.0845C122.453 28.0981 122.831 27.7214 122.852 27.4992C122.897 27.0366 122.892 26.5698 122.887 26.1025C122.884 25.7878 122.88 25.473 122.892 25.159C122.915 24.5836 122.652 24.4274 122.116 24.4003C119.905 24.2874 119.346 23.7653 119.282 21.5741C119.242 20.1934 119.244 18.8118 119.247 17.4302C119.249 16.5268 119.25 15.6235 119.24 14.7204C119.233 14.099 119.518 13.9084 120.085 13.9247C120.146 13.9263 120.207 13.9281 120.268 13.9298C120.931 13.9488 121.596 13.9679 122.251 13.8976C122.478 13.8732 122.825 13.5354 122.847 13.3132C122.924 12.5689 122.919 11.8093 122.854 11.0623C122.836 10.86 122.51 10.5448 122.301 10.5231C121.614 10.4535 120.912 10.4508 120.222 10.505C119.437 10.5656 119.215 10.2277 119.234 9.4925C119.262 8.50985 119.257 7.52632 119.251 6.45811ZM150.935 24.5828C153.887 24.6271 156.362 22.2724 156.435 19.3549C156.508 16.4158 154.122 14.0386 151.022 13.9645C148.003 13.8913 145.476 16.2524 145.436 19.1833C145.395 22.164 147.812 24.5368 150.935 24.5828ZM156.126 12.8255V8.47646V7.08911C156.126 6.38722 156.126 6.03927 156.301 5.86575C156.472 5.69517 156.811 5.69314 157.483 5.68911C158.809 5.68052 159.471 5.67623 159.802 6.00524C160.132 6.33364 160.132 6.99412 160.132 8.31388C160.132 11.3064 160.132 14.2989 160.132 17.2913C160.132 20.2835 160.132 23.2755 160.132 26.2673C160.132 26.4118 160.132 26.5573 160.13 26.7018C160.117 27.4212 160.11 27.7784 159.928 27.9554C159.749 28.13 159.399 28.1293 158.704 28.128L158.681 28.1276C158.659 28.1274 158.637 28.1277 158.616 28.1271C158.407 28.123 158.181 28.1412 157.956 28.1595C157.435 28.2016 156.914 28.2438 156.594 28.0106C156.329 27.8188 156.291 27.3174 156.252 26.813C156.235 26.5808 156.217 26.348 156.177 26.1445C156.164 26.0782 156.131 26.0159 156.085 25.9295C156.059 25.8793 156.028 25.8209 155.994 25.7489C153.852 27.8353 151.333 28.5552 148.481 27.9509C146.439 27.5183 144.729 26.4949 143.436 24.8186C140.808 21.408 141.043 16.2126 143.884 13.1444C146.418 10.4103 152.068 9.01208 156.126 12.8255ZM114.191 38.5285C115.712 36.9262 117.559 36.2199 119.73 36.359C121.91 36.4981 123.687 37.3534 124.98 39.4435C125.121 39.2798 125.252 39.1229 125.377 38.9723C125.628 38.6706 125.857 38.3943 126.109 38.1401C128.813 35.4223 135.024 35.6987 136.963 39.3965C137.471 40.3666 137.86 41.5155 137.898 42.5967C137.98 44.9723 137.975 47.3507 137.97 49.7295V49.7345C137.968 50.9112 137.965 52.0881 137.973 53.2647C137.977 53.8301 137.77 54.0387 137.211 54.0189C136.431 53.9909 135.649 53.9863 134.871 54.0279C134.176 54.0649 133.977 53.7678 133.983 53.1066C133.999 50.9654 133.997 48.8246 133.994 46.6836C133.993 45.8172 133.992 44.9508 133.993 44.0843C133.993 42.8658 133.774 41.7151 132.887 40.8047C131.662 39.5474 130.13 39.5383 128.609 39.9629C127.255 40.3413 126.443 41.3782 126.151 42.7448C126.008 43.4159 125.984 44.1213 125.979 44.8123C125.96 47.5879 125.949 50.3644 125.985 53.1391C125.994 53.8445 125.744 54.0613 125.082 54.0225C124.39 53.9818 123.691 53.9647 123.002 54.0198C122.248 54.0794 121.995 53.8238 122.005 53.0497C122.046 50.1874 122.038 47.3241 122.007 44.4618C122 43.7185 121.926 42.9516 121.73 42.2381C121.292 40.6502 120.301 39.906 118.573 39.7578C116.913 39.6151 115.479 40.1227 114.691 41.6338C114.268 42.444 114.053 43.443 114.027 44.3661C113.944 47.2844 113.974 50.2063 114.006 53.1265C114.013 53.8138 113.798 54.0586 113.116 54.018C112.367 53.9728 111.613 53.9963 110.861 54.0216C110.333 54.0378 110.072 53.8834 110.074 53.289C110.092 47.8823 110.092 42.4756 110.081 37.068C110.08 36.5333 110.283 36.349 110.797 36.3662C111.577 36.3924 112.36 36.4096 113.139 36.3689C113.767 36.3355 114.06 36.5252 113.984 37.1954C113.954 37.4661 113.962 37.7412 113.97 38.0163V38.0174C113.973 38.143 113.977 38.2687 113.977 38.394L114.191 38.5285ZM89.684 45.7042C89.6853 44.823 89.6867 43.9417 89.6867 43.0606H89.6813C89.6813 42.1943 89.6804 41.3281 89.6795 40.4618C89.6767 37.9164 89.674 35.3703 89.6949 32.8252C89.7003 32.1839 89.5106 31.9364 88.8612 31.9735C88.1404 32.015 87.4133 32.0168 86.6944 31.9698C85.9799 31.9238 85.7342 32.1875 85.7433 32.9092C85.7595 34.1231 85.7564 35.3375 85.7532 36.5519V36.5533C85.75 37.7673 85.7469 38.9812 85.7631 40.1946C85.7722 40.8856 85.54 41.096 84.8617 41.0861C82.5504 41.0536 80.2354 41.0509 77.924 41.0906C77.1924 41.1033 76.9883 40.8522 76.9991 40.144C77.0154 38.9627 77.012 37.7809 77.0086 36.5991V36.5977C77.005 35.3512 77.0013 34.1047 77.0208 32.8586C77.0316 32.1523 76.7842 31.9337 76.1212 31.9708C75.4582 32.0078 74.7871 32.0249 74.1278 31.9626C73.2688 31.8813 73.0547 32.2444 73.0602 33.0555C73.0818 36.9588 73.0791 40.8621 73.0764 44.7654C73.0755 46.0665 73.0746 47.3676 73.0746 48.6687C73.0749 49.1008 73.077 49.5329 73.0791 49.965C73.0844 51.0364 73.0897 52.1085 73.0665 53.1794C73.052 53.8261 73.2941 54.0537 73.9291 54.0212C74.6778 53.9824 75.4329 53.986 76.1826 54.0257C76.8311 54.06 77.0289 53.8044 77.0217 53.1677C77.0072 52.0231 77.0092 50.8786 77.0112 49.7341C77.0134 48.45 77.0156 47.166 76.9946 45.8822C76.9829 45.1109 77.1807 44.8011 78.0098 44.8209C79.4412 44.8549 80.8725 44.8499 82.3036 44.845C83.0405 44.8424 83.7782 44.8399 84.5149 44.8426C85.7487 44.848 85.7541 44.8571 85.7559 46.0999C85.7569 46.5893 85.7583 47.0788 85.7598 47.5682V47.5696C85.7655 49.4218 85.7712 51.2739 85.7469 53.1261C85.7369 53.8071 85.9627 54.0646 86.6474 54.0176C87.3384 53.9715 88.0393 53.9616 88.7275 54.0239C89.5115 54.0944 89.7093 53.7855 89.7021 53.0349C89.6762 50.5919 89.6801 48.148 89.684 45.7042ZM17.5274 13.5272C16.1446 11.3829 14.3797 9.98557 11.7892 9.89254C9.53928 9.81125 7.55308 10.4435 5.93721 12.0323C3.06225 14.8594 3.29257 19.8055 6.39334 22.4799C9.8816 25.4877 14.5486 24.6197 17.7776 20.2986C18.9121 20.8604 20.061 21.4304 21.2053 21.9985C19.8306 25.2736 15.4003 28.9082 9.6007 28.042C3.98625 27.2038 0.202633 23.0589 0.00843933 17.6296C-0.192077 12.0287 3.19502 7.59022 8.62612 6.29318C13.8531 5.04402 18.9708 7.71757 20.91 11.4877C20.4316 11.7762 19.9515 12.0656 19.4624 12.3604L19.4613 12.3611L19.4601 12.3618L19.4592 12.3623C18.8348 12.7387 18.1959 13.1239 17.5274 13.5272ZM90.2762 16.9415H80.254C80.5466 15.3121 82.6168 13.9455 84.7765 13.8742C87.7571 13.7748 89.7577 14.8488 90.2762 16.9415ZM83.2066 24.3841C81.533 23.769 79.8728 21.8623 80.0165 20.3684C80.1145 20.362 80.2141 20.354 80.3148 20.3458C80.5433 20.3274 80.7774 20.3085 81.0118 20.3078C82.4791 20.303 83.947 20.3035 85.415 20.3039L86.7365 20.3042C87.3379 20.3042 87.9394 20.304 88.5408 20.3037C90.1947 20.303 91.8486 20.3023 93.5025 20.3069C93.9695 20.3088 94.3543 20.3033 94.3678 19.653C94.4121 17.5133 94.0192 15.5153 92.6445 13.7983C90.5155 11.1401 87.6668 10.2459 84.3953 10.5133C81.0217 10.7888 78.4665 12.4417 76.997 15.4928C75.4633 18.6739 75.7731 21.8162 77.8839 24.6542C80.7652 28.529 87.0734 29.3609 90.9961 26.4633C92.0628 25.6739 92.9895 24.7517 93.5621 23.4493C93.3176 23.3073 93.0803 23.1691 92.8479 23.0337L92.8457 23.0324C92.2925 22.7103 91.7673 22.4044 91.2399 22.1026C91.0738 22.0075 90.9015 21.9221 90.733 21.8386C90.6533 21.7991 90.5744 21.76 90.4975 21.7205C88.0633 24.6126 85.9181 25.3795 83.2066 24.3841ZM126.99 16.9746H137.034C136.72 15.123 134.916 13.9461 132.423 13.8774C129.681 13.8025 127.416 15.0462 126.99 16.9746ZM126.67 20.3779C127.142 22.6116 128.44 23.8897 130.396 24.5003C133.031 25.3222 135.036 24.4894 137.297 21.6885C137.798 21.9753 138.301 22.2644 138.816 22.5595L138.912 22.6147L138.933 22.627L138.943 22.6327C139.415 22.9034 139.896 23.1793 140.391 23.4634C138.887 26.1432 136.691 27.6823 133.759 28.0563C131.004 28.4076 128.401 27.9316 126.148 26.1577C121.606 22.5809 121.857 15.3894 126.638 12.117C130.786 9.27907 136.605 10.0848 139.517 13.9054C140.825 15.6234 141.222 17.5951 141.127 19.7105C141.1 20.3229 140.735 20.3138 140.357 20.3044C140.31 20.3032 140.263 20.3021 140.217 20.3021C138.314 20.3038 136.412 20.3041 134.509 20.3044C132.335 20.3047 130.16 20.3051 127.986 20.3075C127.724 20.3075 127.462 20.3256 127.164 20.3462C127.011 20.3568 126.848 20.3681 126.67 20.3779ZM148.184 39.8089C150.858 39.8134 152.771 40.9722 153.077 42.8934H143.099C143.387 41.1131 145.601 39.8061 148.184 39.8089ZM154.114 48.0495L153.32 47.5956C153.248 47.7018 153.186 47.7947 153.13 47.8792C153.033 48.0238 152.953 48.1435 152.872 48.2621C151.556 50.1914 149.676 50.8273 147.442 50.5907C145.299 50.3649 143.796 49.2485 142.975 47.2433C142.615 46.3618 142.699 46.2218 143.623 46.2181C145.296 46.2117 146.97 46.2122 148.642 46.2126C149.312 46.2128 149.981 46.213 150.65 46.2127H151.617C153.232 46.2126 154.848 46.2124 156.463 46.2154C156.861 46.2163 157.203 46.2073 157.224 45.6491C157.318 43.0126 156.647 40.6543 154.668 38.8153C151.581 35.9485 146.881 35.5348 143.164 37.754C137.779 40.9704 137.52 48.9287 142.68 52.4486C144.942 53.9931 147.452 54.2406 150.074 53.9163C152.648 53.5984 154.562 52.2083 156.029 50.1345L156.048 50.1086L156.06 50.091L156.092 50.0474C156.308 49.7521 156.541 49.433 156.018 49.1356C155.394 48.7805 154.77 48.424 154.119 48.052L154.114 48.0495ZM99.8675 50.4129C102.797 50.4499 105.178 48.1792 105.228 45.3006C105.276 42.4528 102.919 40.0294 100.039 39.9707C97.1388 39.912 94.6486 42.3046 94.6251 45.1733C94.6026 48.0492 96.9293 50.375 99.8675 50.4129ZM99.9009 54.0321C94.5276 54.1622 90.6753 49.6741 90.7864 45.0586C90.9038 40.1739 94.9458 36.309 100.048 36.3524C105.041 36.3939 109.138 40.4106 109.107 45.2004C109.074 50.0688 104.972 54.1947 99.9009 54.0321ZM30.4419 14.1055C33.4858 13.9492 35.9055 16.1188 36.0383 19.1229C36.1638 21.9645 33.9013 24.3481 30.9459 24.4845C28.0764 24.6172 25.588 22.3519 25.466 19.4941C25.3432 16.6454 27.5525 14.2536 30.4419 14.1055ZM39.8743 19.2665C39.877 14.2988 35.9218 10.4781 30.7752 10.4781C25.6187 10.4772 21.584 14.3611 21.5903 19.3162C21.5975 24.1954 25.6982 28.1516 30.7418 28.1434C35.8965 28.1362 39.8716 24.2713 39.8743 19.2665ZM44.8712 12.8497C46.1177 11.634 47.2864 10.7868 48.7768 10.5917C51.1116 10.2864 53.3417 10.4444 55.1761 12.1931C56.5897 13.5398 57.1379 15.2604 57.1777 17.122C57.2235 19.3043 57.2221 21.4874 57.2207 23.6702C57.2199 24.9295 57.2191 26.1887 57.2273 27.4477C57.2301 27.939 57.0322 28.1296 56.5644 28.1251C56.4032 28.1235 56.2419 28.1212 56.0806 28.1189L56.0796 28.1188C55.4314 28.1096 54.7817 28.1003 54.1356 28.135C53.4428 28.173 53.2378 27.8875 53.245 27.2228C53.2721 24.5917 53.264 21.9588 53.255 19.3268C53.2532 18.6629 53.2342 17.9954 53.1646 17.3351C52.9732 15.5215 51.9146 14.2669 50.3213 13.9137C48.3324 13.4721 46.3073 14.1793 45.5261 15.8132C45.0934 16.7173 44.8748 17.7949 44.8414 18.8038C44.7502 21.5478 44.7836 24.2981 44.8242 27.0457C44.8369 27.8659 44.5984 28.2226 43.7467 28.135C43.3771 28.097 43.0033 28.1064 42.6297 28.1158C42.4528 28.1203 42.2757 28.1248 42.0992 28.1242C40.9377 28.1206 40.935 28.1197 40.935 26.9861C40.9339 24.2287 40.9338 21.4709 40.9337 18.713C40.9336 16.8719 40.9335 15.0305 40.9332 13.1893C40.9332 13.004 40.9348 12.8186 40.9364 12.6331C40.9403 12.1823 40.9442 11.7305 40.925 11.2808C40.8988 10.6757 41.1572 10.4598 41.7515 10.4887C42.4722 10.5248 43.2002 10.542 43.9183 10.4842C44.6454 10.4254 44.8261 10.766 44.799 11.4001C44.7883 11.6554 44.8071 11.9123 44.8314 12.2459C44.8443 12.4221 44.8587 12.6197 44.8712 12.8497ZM63.1352 12.4773C63.0077 12.5896 62.8663 12.7143 62.702 12.8563C62.6911 12.6256 62.6774 12.4191 62.6648 12.2289C62.6397 11.8497 62.6189 11.5355 62.6333 11.2233C62.6595 10.6479 62.4157 10.4546 61.8629 10.4853C61.4511 10.5081 61.0381 10.5032 60.625 10.4984C60.431 10.4961 60.2368 10.4938 60.0429 10.4944C58.8344 10.4989 58.8344 10.4998 58.8353 11.6695C58.8359 12.2566 58.8367 12.8439 58.8375 13.4312V13.4391C58.8391 14.6127 58.8407 15.7864 58.8407 16.9597C58.8407 17.73 58.8413 18.5003 58.842 19.2706C58.8442 21.9118 58.8464 24.553 58.8226 27.1941C58.8163 27.9113 59.0529 28.1841 59.7674 28.1362C60.4286 28.091 61.0988 28.0901 61.7608 28.1335C62.4337 28.1777 62.674 27.942 62.6631 27.2483C62.6279 24.8783 62.636 22.5073 62.6586 20.1363L62.6605 19.9152C62.6679 19.0365 62.6753 18.1468 62.8302 17.2894C63.2376 15.0358 65.0314 13.6882 67.3093 13.8146C69.6162 13.942 70.8653 15.1848 71.0451 17.6407C71.1217 18.6823 71.1242 19.73 71.1267 20.7768C71.1273 21.0017 71.1278 21.2266 71.1291 21.4514C71.1408 23.3888 71.1417 25.3254 71.1218 27.2628C71.1146 27.8788 71.3224 28.1606 71.9781 28.1281C72.6849 28.0933 73.3945 28.1069 74.1032 28.1206L74.406 28.1263C74.8531 28.1353 75.1105 28.0116 75.1078 27.4958C75.1015 26.3269 75.1065 25.1577 75.1115 23.9886C75.1217 21.6299 75.1318 19.2715 75.0491 16.9163C74.956 14.259 73.8442 12.0208 71.2239 11.0246C68.6407 10.0418 66.062 10.1286 63.7624 11.9432C63.5638 12.0993 63.3741 12.2665 63.1352 12.4773ZM108.982 21.4224C110.099 21.8686 111.19 22.304 112.354 22.7682C111.759 24.4817 110.618 25.6766 109.227 26.6349C104.945 29.5804 98.6822 28.1831 96.0186 23.7175C92.7544 18.2431 96.4603 11.0552 102.828 10.5196C106.502 10.2098 109.548 11.3406 111.698 14.4622C112.467 15.5822 112.441 15.64 111.206 16.1602C111.159 16.1802 111.112 16.2011 111.065 16.2221C110.98 16.26 110.895 16.2981 110.808 16.33C110.639 16.3927 110.467 16.4744 110.294 16.5563C109.887 16.7497 109.479 16.9435 109.11 16.8864C108.819 16.8412 108.574 16.5158 108.326 16.1868C108.207 16.0292 108.088 15.8708 107.963 15.742C105.955 13.6773 102.591 13.5382 100.415 15.4241C98.3273 17.2333 98.0482 20.3124 99.7715 22.5235C101.92 25.2801 106.394 25.104 108.468 22.1793C108.577 22.0256 108.682 21.869 108.796 21.6977L108.797 21.6972L108.798 21.695C108.856 21.6084 108.917 21.5181 108.982 21.4224Z" fill="#FF6A07"/>
<path fill-rule="evenodd" clip-rule="evenodd" d="M81.2412 74.6172C81.9287 74.6172 82.5303 74.4531 83.0459 74.125C83.5616 73.7969 83.96 73.3213 84.2412 72.6982C84.5225 72.0752 84.6631 71.3457 84.6631 70.5098V69.9707C84.6631 69.1387 84.5225 68.4092 84.2412 67.7822C83.96 67.1553 83.5586 66.6768 83.0371 66.3467C82.5157 66.0166 81.9131 65.8516 81.2295 65.8516C80.5577 65.8516 79.961 66.0186 79.4395 66.3525C78.918 66.6865 78.5147 67.168 78.2295 67.7969C77.9444 68.4258 77.8018 69.1504 77.8018 69.9707V70.5859C77.8096 71.3906 77.9571 72.0986 78.2442 72.71C78.5313 73.3213 78.9346 73.792 79.4541 74.1221C79.9737 74.4521 80.5694 74.6172 81.2412 74.6172ZM4.14258 66.8945V74.5H3.02344V66.8945H0.287109V65.9688H6.88477V66.8945H4.14258ZM12.6454 70.5566V74.5H11.5204V65.9688H12.6454V69.6367H16.9462V65.9688H18.077V74.5H16.9462V70.5566H12.6454ZM28.865 74.5V73.5801H24.5701V70.5566H28.2673V69.6367H24.5701V66.8945H28.8064V65.9688H23.4451V74.5H28.865ZM41.1128 72.2734L40.3101 74.5H39.1499L42.4077 65.9688H43.3921L46.6558 74.5H45.5015L44.687 72.2734H41.1128ZM44.353 71.3477H41.4527L42.8999 67.3574L44.353 71.3477ZM52.2992 71.0488V74.5H51.1684V65.9688H53.9926C54.9535 65.9688 55.6928 66.1875 56.2104 66.625C56.7279 67.0625 56.9867 67.6992 56.9867 68.5352C56.9867 69.0664 56.8432 69.5293 56.5561 69.9238C56.2689 70.3184 55.8695 70.6133 55.3578 70.8086L57.3617 74.4297V74.5H56.1547L54.3031 71.0488H52.2992ZM54.0277 70.1289H52.2992V66.8945H54.0219C54.6156 66.8984 55.0697 67.041 55.3842 67.3223C55.6986 67.6035 55.8559 68.0078 55.8559 68.5352C55.8559 69.0195 55.6908 69.4062 55.3607 69.6953C55.0307 69.9844 54.5863 70.1289 54.0277 70.1289ZM64.6165 66.8945V74.5H63.4973V66.8945H60.761V65.9688H67.3587V66.8945H64.6165ZM79.5391 72.8213C79.9512 73.3818 80.5186 73.6621 81.2412 73.6621C81.9678 73.6621 82.5303 73.3975 82.9287 72.8682C83.3272 72.3389 83.5323 71.5801 83.544 70.5918V69.959C83.544 68.9473 83.3409 68.1709 82.9346 67.6299C82.5284 67.0889 81.96 66.8184 81.2295 66.8184C80.5186 66.8184 79.959 67.0889 79.5508 67.6299C79.1426 68.1709 78.9327 68.9219 78.9209 69.8828V70.5098C78.9209 71.4902 79.127 72.2607 79.5391 72.8213ZM90.8456 74.5V70.7324H94.4257V69.8125H90.8456V66.8945H95.0058V65.9688H89.7206V74.5H90.8456ZM111.238 73.5801V74.5H106.064V65.9688H107.195V73.5801H111.238ZM117.098 74.5V65.9688H115.973V74.5H117.098ZM129.017 65.9688L125.853 74.5H124.857L121.699 65.9688H122.923L125.349 73.0059L127.787 65.9688H129.017ZM134.737 74.5V65.9688H133.612V74.5H134.737ZM141.294 67.9258V74.5H140.163V65.9688H141.294L145.601 72.5723V65.9688H146.72V74.5H145.589L141.294 67.9258ZM155.369 74.6172C156.057 74.6172 156.659 74.5146 157.177 74.3096C157.694 74.1045 158.098 73.7949 158.387 73.3809V70.252H155.293V71.166H157.268V73.082C157.061 73.3047 156.799 73.4629 156.482 73.5566C156.166 73.6504 155.797 73.6973 155.375 73.6973C154.629 73.6973 154.037 73.415 153.6 72.8506C153.162 72.2861 152.943 71.5254 152.943 70.5684V69.8711C152.947 68.8672 153.144 68.1006 153.532 67.5713C153.921 67.042 154.492 66.7773 155.246 66.7773C156.379 66.7773 157.051 67.3418 157.262 68.4707H158.387C158.266 67.6348 157.934 66.9893 157.391 66.5342C156.848 66.0791 156.131 65.8516 155.24 65.8516C154.154 65.8516 153.312 66.2051 152.712 66.9121C152.112 67.6191 151.813 68.6152 151.813 69.9004V70.6445C151.82 71.4375 151.972 72.1348 152.267 72.7363C152.562 73.3379 152.979 73.8018 153.518 74.1279C154.057 74.4541 154.674 74.6172 155.369 74.6172ZM174.842 73.9932C174.303 74.4092 173.582 74.6172 172.68 74.6172C172.094 74.6172 171.547 74.5049 171.039 74.2803C170.531 74.0557 170.139 73.748 169.864 73.3574C169.589 72.9668 169.451 72.5234 169.451 72.0273H170.582C170.582 72.543 170.772 72.9502 171.153 73.249C171.534 73.5479 172.043 73.6973 172.68 73.6973C173.273 73.6973 173.728 73.5762 174.045 73.334C174.361 73.0918 174.519 72.7617 174.519 72.3438C174.519 71.9258 174.373 71.6025 174.08 71.374C173.787 71.1455 173.256 70.9199 172.486 70.6973C171.521 70.4199 170.819 70.0791 170.38 69.6748C169.94 69.2705 169.721 68.7715 169.721 68.1777C169.721 67.5059 169.989 66.9502 170.526 66.5107C171.063 66.0713 171.762 65.8516 172.621 65.8516C173.207 65.8516 173.729 65.9648 174.188 66.1914C174.647 66.418 175.003 66.7305 175.255 67.1289C175.507 67.5273 175.633 67.9629 175.633 68.4355H174.502C174.502 67.9199 174.338 67.5146 174.01 67.2197C173.681 66.9248 173.219 66.7773 172.621 66.7773C172.066 66.7773 171.634 66.8994 171.323 67.1436C171.013 67.3877 170.857 67.7266 170.857 68.1602C170.857 68.5078 171.005 68.8018 171.3 69.042C171.595 69.2822 172.097 69.502 172.806 69.7012C173.514 69.9004 174.069 70.1201 174.47 70.3604C174.87 70.6006 175.167 70.8809 175.36 71.2012C175.554 71.5215 175.65 71.8984 175.65 72.332C175.65 73.0234 175.381 73.5771 174.842 73.9932ZM181.587 74.5V71.1777L181.475 67.6094L184.27 74.5H185.132L187.932 67.5918L187.827 71.1777V74.5H188.952V65.9688H187.493L184.704 72.9297L181.915 65.9688H180.462V74.5H181.587ZM195.55 72.2734L194.748 74.5H193.587L196.845 65.9688H197.83L201.093 74.5H199.939L199.125 72.2734H195.55ZM198.791 71.3477H195.89L197.337 67.3574L198.791 71.3477ZM206.737 71.0488V74.5H205.606V65.9688H208.43C209.391 65.9688 210.13 66.1875 210.648 66.625C211.166 67.0625 211.424 67.6992 211.424 68.5352C211.424 69.0664 211.281 69.5293 210.994 69.9238C210.707 70.3184 210.307 70.6133 209.795 70.8086L211.799 74.4297V74.5H210.592L208.741 71.0488H206.737ZM208.465 70.1289H206.737V66.8945H208.459C209.053 66.8984 209.507 67.041 209.822 67.3223C210.136 67.6035 210.293 68.0078 210.293 68.5352C210.293 69.0195 210.128 69.4062 209.798 69.6953C209.468 69.9844 209.024 70.1289 208.465 70.1289ZM221.796 66.8945H219.054V74.5H217.935V66.8945H215.199V65.9688H221.796V66.8945Z" fill="#1E1E1E"/>
<path fill-rule="evenodd" clip-rule="evenodd" d="M189.199 52.8774V49.2347H188.389L185.362 49.2321C182.842 49.2298 180.323 49.2275 177.803 49.2275C175.451 49.2284 174.632 48.4128 174.632 46.0355C174.631 43.3936 174.632 40.7515 174.633 38.1095C174.635 31.9005 174.637 25.6912 174.618 19.4825C174.614 18.1168 175.065 17.1431 176.227 16.36C179.32 14.2775 182.39 12.1621 185.461 10.0467L185.462 10.046L185.463 10.045C186.865 9.07924 188.267 8.11344 189.671 7.15074C193.731 4.367 199.174 4.32094 203.226 7.10378C205.361 8.57085 207.484 10.0566 209.606 11.5423L209.607 11.5425C211.912 13.1556 214.216 14.7691 216.537 16.3582C217.664 17.1287 218.097 18.059 218.091 19.4075C218.064 25.8267 218.067 32.2464 218.07 38.6662C218.071 41.2135 218.072 43.7609 218.071 46.3083C218.071 48.346 217.212 49.2194 215.185 49.2239C213.607 49.2274 212.028 49.2278 210.449 49.2281C207.574 49.2287 204.698 49.2294 201.823 49.2492C201.171 49.2537 200.788 49.0658 200.427 48.4995C199.141 46.4817 196.633 45.7528 194.484 46.694C192.568 47.5331 191.512 49.3774 191.667 51.6111C191.797 53.4682 193.271 55.1843 195.173 55.6928C197.149 56.2203 199.266 55.4571 200.386 53.6894C200.773 53.0762 201.195 52.9253 201.86 52.928C206.314 52.9497 210.768 52.9533 215.222 52.9217C216.021 52.9154 216.855 52.835 217.609 52.5911C220.171 51.7574 221.771 49.4723 221.773 46.7211C221.784 37.3781 221.792 28.0351 221.77 18.6922C221.765 16.6328 220.913 14.9429 219.198 13.7443C218.041 12.9352 216.885 12.1246 215.729 11.314L215.724 11.3107C212.409 8.98615 209.094 6.66151 205.756 4.37061C199.951 0.384683 193.261 0.336812 187.402 4.26403C184.447 6.24492 181.518 8.26372 178.59 10.2824L178.589 10.2827C176.998 11.3796 175.407 12.4765 173.811 13.5672C171.895 14.8769 170.967 16.6617 170.972 18.9947C170.985 24.3886 170.984 29.7824 170.984 35.1763C170.984 38.952 170.984 42.7277 170.988 46.5034C170.989 47.1058 171.017 47.7263 171.164 48.3062C171.885 51.1478 174.228 52.91 177.308 52.9289C180.269 52.9467 183.229 52.9438 186.19 52.9408C186.989 52.94 187.789 52.9392 188.589 52.9389C188.742 52.9389 188.895 52.9177 189.034 52.8986C189.092 52.8906 189.147 52.883 189.199 52.8774ZM213.936 30.3359C208.908 26.0772 203.073 24.0016 195.952 23.8742C195.714 23.8974 195.432 23.9189 195.119 23.9429C194.308 24.005 193.289 24.0831 192.284 24.2455C187.172 25.0719 182.645 27.1755 178.761 30.6204C178.511 30.8417 178.27 31.1199 178.142 31.4216C177.808 32.2083 178.098 32.8731 178.966 33.5785C179.614 34.1042 180.276 34.1385 180.951 33.6688C181.146 33.532 181.328 33.3757 181.509 33.2191C181.635 33.111 181.76 33.0029 181.89 32.9011C188.475 27.7382 195.788 26.4222 203.764 28.8519C206.641 29.728 209.195 31.2518 211.484 33.21C212.399 33.9922 212.982 34.0689 213.742 33.564C215.165 32.6193 215.241 31.4415 213.936 30.3359ZM209.198 37.9722C208.835 38.4135 208.509 38.8096 208.107 39.1013C207.529 39.5204 206.841 39.3415 206.264 38.8773C204.081 37.1187 201.629 35.9662 198.836 35.5706C194.331 34.932 190.301 36.0312 186.745 38.8709C185.573 39.8076 184.109 39.4355 183.588 38.0282C183.326 37.3228 183.478 36.6906 184.102 36.1676C187.601 33.2366 191.617 31.7129 196.185 31.6334C200.724 31.5539 204.771 32.9322 208.334 35.7178C208.661 35.973 208.925 36.3085 209.231 36.6979C209.386 36.8956 209.552 37.1071 209.743 37.3291C209.546 37.5494 209.368 37.7657 209.198 37.9722ZM189.141 42.4273C189.055 42.5714 188.968 42.7154 188.874 42.849C189.009 43.8516 189.607 44.426 190.272 44.6835C190.769 44.8759 191.569 44.7774 192.028 44.4848C193.519 43.5337 195.094 43.0062 196.853 43.0802C198.36 43.1435 199.72 43.6538 200.977 44.4974C201.883 45.1053 202.859 44.7855 203.564 43.7405C204.036 43.0405 203.846 42.0415 203.138 41.5141C199.303 38.6544 193.582 38.6716 189.784 41.5971C189.516 41.8041 189.328 42.1158 189.141 42.4273Z" fill="#1E1E1E"/>
</g>
<defs>
<clipPath id="clip0_367_853">
<rect width="222" height="75" fill="white" transform="translate(0 0.5)"/>
</clipPath>
</defs>
</svg>
