<svg width="703" height="455" viewBox="0 0 703 455" fill="none" xmlns="http://www.w3.org/2000/svg">
<g filter="url(#filter0_d_296_371)">
<g clip-path="url(#clip0_296_371)">
<rect x="15" y="12" width="688" height="424" rx="3.05704" fill="url(#paint0_linear_296_371)"/>
<rect width="482.013" height="209.555" transform="matrix(0.374608 -0.927183 0.936024 0.351935 433.285 436.25)" fill="white"/>
<rect width="473.277" height="209.555" transform="matrix(0.374608 -0.927183 0.936024 0.351935 -196 362.814)" fill="white"/>
<rect width="466.463" height="43.8723" transform="matrix(0.374608 -0.927183 0.936024 0.351935 7.271 432.025)" fill="white"/>
<g filter="url(#filter1_d_296_371)">
<g filter="url(#filter2_b_296_371)">
<rect x="456.777" y="322" width="104.223" height="57" fill="#DEBDFF" fill-opacity="0.5"/>
</g>
<rect x="463.343" y="329.042" width="91.0907" height="10.6763" fill="#A857F9"/>
<rect x="463.343" y="345.161" width="69.467" height="10.6763" fill="#A857F9"/>
<rect x="463.343" y="361.28" width="32.3341" height="10.6763" fill="#A857F9"/>
<rect x="503.868" y="361.28" width="36.2284" height="10.6763" fill="#A857F9"/>
<path d="M408.002 369.748C408.002 369.748 422.617 351.61 423.511 350.5H454.11" stroke="#A857F9" stroke-width="0.611408"/>
<ellipse cx="407.667" cy="370.266" rx="2.6668" ry="3.30965" fill="#A857F9"/>
<ellipse cx="454.111" cy="350.001" rx="2.6668" ry="3.30965" fill="#A857F9"/>
</g>
<g filter="url(#filter3_d_296_371)">
<g filter="url(#filter4_b_296_371)">
<rect x="105" y="125" width="108.853" height="55.4185" fill="#DEBDFF" fill-opacity="0.5"/>
</g>
<rect x="111.858" y="131.848" width="95.1374" height="10.38" fill="#A857F9"/>
<rect x="111.858" y="147.52" width="72.5531" height="10.38" fill="#A857F9"/>
<rect x="111.858" y="163.191" width="33.7706" height="10.38" fill="#A857F9"/>
<rect x="154.183" y="163.191" width="37.8379" height="10.38" fill="#A857F9"/>
<path d="M264.795 133.511C264.795 133.511 249.531 151.146 248.597 152.225H216.639" stroke="#A857F9" stroke-width="0.611408"/>
<ellipse cx="265.145" cy="133.007" rx="2.78527" ry="3.21782" transform="rotate(180 265.145 133.007)" fill="#A857F9"/>
<ellipse cx="216.639" cy="152.709" rx="2.78527" ry="3.21782" transform="rotate(180 216.639 152.709)" fill="#A857F9"/>
</g>
<g clip-path="url(#clip1_296_371)">
<rect x="267.882" y="61" width="172" height="301" rx="10.2693" fill="white"/>
<rect x="342.1" y="78.231" width="51.3465" height="6.16158" rx="3.08079" fill="#B895FF"/>
<rect x="342.1" y="89.1851" width="34.9156" height="6.16158" rx="3.08079" fill="#B895FF"/>
<circle cx="291.715" cy="86.8463" r="8.61539" fill="#B895FF"/>
<g filter="url(#filter5_d_296_371)">
<path d="M354.414 322.912L323.06 303.269L330.544 339.625L337.343 323.666L354.414 322.912Z" fill="white"/>
<path d="M354.414 322.912L323.06 303.269L330.544 339.625L337.343 323.666L354.414 322.912Z" stroke="#8000FF" stroke-width="2.2802"/>
</g>
</g>
<rect x="269.369" y="62.3692" width="169.395" height="298.262" rx="8.90007" stroke="url(#paint1_linear_296_371)" stroke-width="2.73848"/>
<g filter="url(#filter6_d_296_371)">
<rect x="406" y="95" width="92.8457" height="59.6323" rx="3.4231" fill="white"/>
</g>
<rect x="440.817" y="107.305" width="20.31" height="4.73272" rx="2.36636" fill="#B895FF"/>
<rect x="463.062" y="107.305" width="20.31" height="4.73272" rx="2.36636" fill="#B895FF"/>
<rect x="440.817" y="114.877" width="36.7514" height="4.73272" rx="2.36636" fill="#B895FF"/>
<rect x="421.474" y="122.45" width="23.2114" height="4.73272" rx="2.36636" fill="#B895FF"/>
<rect x="447.587" y="122.45" width="34.8171" height="4.73272" rx="2.36636" fill="#B895FF"/>
<rect x="418.573" y="140.434" width="65.7657" height="4.73272" rx="2.36636" fill="#FFCA0E" fill-opacity="0.25"/>
<rect x="418.573" y="140.434" width="28.0471" height="4.73272" rx="2.36636" fill="#FFCA0E"/>
<path d="M427.709 106.653C427.947 106.259 428.542 106.259 428.779 106.653L434.931 116.831C435.168 117.225 434.871 117.716 434.396 117.716H422.093C421.618 117.716 421.32 117.225 421.558 116.831L427.709 106.653Z" fill="#B895FF"/>
<rect x="151.861" y="233.27" width="165" height="70" stroke="#8000FF" stroke-width="2"/>
<rect x="148" y="230" width="7.87653" height="7.87653" fill="#8000FF"/>
<rect x="148" y="298.334" width="7.87653" height="7.87653" fill="#8000FF"/>
<rect x="312.742" y="230.164" width="7.87653" height="7.87653" fill="#8000FF"/>
<rect x="312.742" y="298.498" width="7.87653" height="7.87653" fill="#8000FF"/>
<rect x="230.423" y="230" width="7.87653" height="7.87653" fill="#8000FF"/>
<rect x="230.423" y="298.334" width="7.87653" height="7.87653" fill="#8000FF"/>
</g>
<rect x="15.9171" y="12.9171" width="686.166" height="422.166" rx="2.13993" stroke="url(#paint2_linear_296_371)" stroke-width="1.83422"/>
</g>
<defs>
<filter id="filter0_d_296_371" x="0.130279" y="0.33589" width="717.739" height="453.739" filterUnits="userSpaceOnUse" color-interpolation-filters="sRGB">
<feFlood flood-opacity="0" result="BackgroundImageFix"/>
<feColorMatrix in="SourceAlpha" type="matrix" values="0 0 0 0 0 0 0 0 0 0 0 0 0 0 0 0 0 0 127 0" result="hardAlpha"/>
<feOffset dy="3.20561"/>
<feGaussianBlur stdDeviation="7.43486"/>
<feComposite in2="hardAlpha" operator="out"/>
<feColorMatrix type="matrix" values="0 0 0 0 0.784 0 0 0 0 0.325 0 0 0 0 1 0 0 0 0.25 0"/>
<feBlend mode="normal" in2="BackgroundImageFix" result="effect1_dropShadow_296_371"/>
<feBlend mode="normal" in="SourceGraphic" in2="effect1_dropShadow_296_371" result="shape"/>
</filter>
<filter id="filter1_d_296_371" x="401" y="322" width="164" height="65" filterUnits="userSpaceOnUse" color-interpolation-filters="sRGB">
<feFlood flood-opacity="0" result="BackgroundImageFix"/>
<feColorMatrix in="SourceAlpha" type="matrix" values="0 0 0 0 0 0 0 0 0 0 0 0 0 0 0 0 0 0 127 0" result="hardAlpha"/>
<feOffset dy="4"/>
<feGaussianBlur stdDeviation="2"/>
<feComposite in2="hardAlpha" operator="out"/>
<feColorMatrix type="matrix" values="0 0 0 0 0 0 0 0 0 0 0 0 0 0 0 0 0 0 0.25 0"/>
<feBlend mode="normal" in2="BackgroundImageFix" result="effect1_dropShadow_296_371"/>
<feBlend mode="normal" in="SourceGraphic" in2="effect1_dropShadow_296_371" result="shape"/>
</filter>
<filter id="filter2_b_296_371" x="453.72" y="318.943" width="110.337" height="63.1141" filterUnits="userSpaceOnUse" color-interpolation-filters="sRGB">
<feFlood flood-opacity="0" result="BackgroundImageFix"/>
<feGaussianBlur in="BackgroundImageFix" stdDeviation="1.52852"/>
<feComposite in2="SourceAlpha" operator="in" result="effect1_backgroundBlur_296_371"/>
<feBlend mode="normal" in="SourceGraphic" in2="effect1_backgroundBlur_296_371" result="shape"/>
</filter>
<filter id="filter3_d_296_371" x="101" y="125" width="170.93" height="63.4185" filterUnits="userSpaceOnUse" color-interpolation-filters="sRGB">
<feFlood flood-opacity="0" result="BackgroundImageFix"/>
<feColorMatrix in="SourceAlpha" type="matrix" values="0 0 0 0 0 0 0 0 0 0 0 0 0 0 0 0 0 0 127 0" result="hardAlpha"/>
<feOffset dy="4"/>
<feGaussianBlur stdDeviation="2"/>
<feComposite in2="hardAlpha" operator="out"/>
<feColorMatrix type="matrix" values="0 0 0 0 0 0 0 0 0 0 0 0 0 0 0 0 0 0 0.25 0"/>
<feBlend mode="normal" in2="BackgroundImageFix" result="effect1_dropShadow_296_371"/>
<feBlend mode="normal" in="SourceGraphic" in2="effect1_dropShadow_296_371" result="shape"/>
</filter>
<filter id="filter4_b_296_371" x="101.943" y="121.943" width="114.967" height="61.5325" filterUnits="userSpaceOnUse" color-interpolation-filters="sRGB">
<feFlood flood-opacity="0" result="BackgroundImageFix"/>
<feGaussianBlur in="BackgroundImageFix" stdDeviation="1.52852"/>
<feComposite in2="SourceAlpha" operator="in" result="effect1_backgroundBlur_296_371"/>
<feBlend mode="normal" in="SourceGraphic" in2="effect1_backgroundBlur_296_371" result="shape"/>
</filter>
<filter id="filter5_d_296_371" x="317.406" y="300.887" width="44.7151" height="50.5425" filterUnits="userSpaceOnUse" color-interpolation-filters="sRGB">
<feFlood flood-opacity="0" result="BackgroundImageFix"/>
<feColorMatrix in="SourceAlpha" type="matrix" values="0 0 0 0 0 0 0 0 0 0 0 0 0 0 0 0 0 0 127 0" result="hardAlpha"/>
<feOffset dy="4"/>
<feGaussianBlur stdDeviation="2"/>
<feComposite in2="hardAlpha" operator="out"/>
<feColorMatrix type="matrix" values="0 0 0 0 0 0 0 0 0 0 0 0 0 0 0 0 0 0 0.25 0"/>
<feBlend mode="normal" in2="BackgroundImageFix" result="effect1_dropShadow_296_371"/>
<feBlend mode="normal" in="SourceGraphic" in2="effect1_dropShadow_296_371" result="shape"/>
</filter>
<filter id="filter6_d_296_371" x="395.046" y="86.7846" width="114.754" height="81.5402" filterUnits="userSpaceOnUse" color-interpolation-filters="sRGB">
<feFlood flood-opacity="0" result="BackgroundImageFix"/>
<feColorMatrix in="SourceAlpha" type="matrix" values="0 0 0 0 0 0 0 0 0 0 0 0 0 0 0 0 0 0 127 0" result="hardAlpha"/>
<feOffset dy="2.73848"/>
<feGaussianBlur stdDeviation="5.47696"/>
<feComposite in2="hardAlpha" operator="out"/>
<feColorMatrix type="matrix" values="0 0 0 0 0 0 0 0 0 0 0 0 0 0 0 0 0 0 0.25 0"/>
<feBlend mode="normal" in2="BackgroundImageFix" result="effect1_dropShadow_296_371"/>
<feBlend mode="normal" in="SourceGraphic" in2="effect1_dropShadow_296_371" result="shape"/>
</filter>
<linearGradient id="paint0_linear_296_371" x1="703" y1="12" x2="324.246" y2="626.582" gradientUnits="userSpaceOnUse">
<stop stop-color="#F6E9FF"/>
<stop offset="1" stop-color="#E3BCFF"/>
</linearGradient>
<linearGradient id="paint1_linear_296_371" x1="354.067" y1="61" x2="354.067" y2="362" gradientUnits="userSpaceOnUse">
<stop stop-color="#CCB0FF"/>
<stop offset="0.0001" stop-color="#D6C0FF"/>
<stop offset="0.270833" stop-color="white"/>
<stop offset="1" stop-color="#AA8AE7"/>
</linearGradient>
<linearGradient id="paint2_linear_296_371" x1="359" y1="12" x2="359" y2="436" gradientUnits="userSpaceOnUse">
<stop stop-color="#CCB0FF"/>
<stop offset="0.0001" stop-color="#D6C0FF"/>
<stop offset="0.270833" stop-color="white"/>
<stop offset="1" stop-color="#AA8AE7"/>
</linearGradient>
<clipPath id="clip0_296_371">
<rect x="15" y="12" width="688" height="424" rx="3.05704" fill="white"/>
</clipPath>
<clipPath id="clip1_296_371">
<rect x="268" y="61" width="172.133" height="301" rx="10.2693" fill="white"/>
</clipPath>
</defs>
</svg>
