<svg width="353" height="209" viewBox="0 0 353 209" fill="none" xmlns="http://www.w3.org/2000/svg">
<rect x="29.7931" y="1.10345" width="297.931" height="166.621" rx="11.0345" fill="white"/>
<rect x="29.7931" y="1.10345" width="297.931" height="166.621" rx="11.0345" fill="url(#paint0_linear_10_87)"/>
<rect x="29.7931" y="1.10345" width="297.931" height="166.621" rx="11.0345" stroke="url(#paint1_linear_10_87)" stroke-width="2.2069"/>
<rect x="71.1724" y="35.8621" width="215.172" height="23.1724" rx="11.5862" fill="white" stroke="#937AF6" stroke-width="1.10345"/>
<circle cx="281.931" cy="16" r="4.96552" fill="#937AF6"/>
<circle cx="297.379" cy="16.0001" r="4.96552" fill="#937AF6"/>
<circle cx="312.828" cy="16.0001" r="4.96552" fill="#937AF6"/>
<rect x="73.931" y="73.931" width="48.5517" height="54.069" rx="4.41379" fill="white"/>
<rect x="79.4483" y="104.828" width="21.1938" height="3.59894" rx="1.79947" fill="#C2DAFF"/>
<rect x="102.621" y="104.828" width="12.1379" height="3.31034" rx="1.65517" fill="#C2DAFF"/>
<rect x="79.4483" y="109.977" width="13.977" height="3.67816" rx="1.83908" fill="#C2DAFF"/>
<rect x="94.8965" y="110.345" width="13.2414" height="3.31034" rx="1.65517" fill="#C2DAFF"/>
<rect x="79.4483" y="78.3448" width="37.5172" height="23.1724" rx="2.2069" fill="#A38BFF"/>
<rect x="128" y="73.931" width="48.5517" height="54.069" rx="4.41379" fill="white"/>
<rect x="133.517" y="104.828" width="21.1938" height="3.59894" rx="1.79947" fill="#C2DAFF"/>
<rect x="156.69" y="104.828" width="12.1379" height="3.31034" rx="1.65517" fill="#C2DAFF"/>
<rect x="133.517" y="109.977" width="13.977" height="3.67816" rx="1.83908" fill="#C2DAFF"/>
<rect x="148.966" y="110.345" width="13.2414" height="3.31034" rx="1.65517" fill="#C2DAFF"/>
<rect x="133.517" y="78.3448" width="37.5172" height="23.1724" rx="2.2069" fill="#FF8B92"/>
<rect x="182.069" y="73.931" width="48.5517" height="54.069" rx="4.41379" fill="white"/>
<rect x="187.586" y="104.828" width="21.1938" height="3.59894" rx="1.79947" fill="#C2DAFF"/>
<rect x="210.759" y="104.828" width="12.1379" height="3.31034" rx="1.65517" fill="#C2DAFF"/>
<rect x="187.586" y="109.977" width="13.977" height="3.67816" rx="1.83908" fill="#C2DAFF"/>
<rect x="203.034" y="110.345" width="13.2414" height="3.31034" rx="1.65517" fill="#C2DAFF"/>
<rect x="187.586" y="78.3448" width="37.5172" height="23.1724" rx="2.2069" fill="#FFC38B"/>
<rect x="236.138" y="73.931" width="48.5517" height="54.069" rx="4.41379" fill="white"/>
<rect x="241.655" y="104.828" width="21.1938" height="3.59894" rx="1.79947" fill="#C2DAFF"/>
<rect x="264.828" y="104.828" width="12.1379" height="3.31034" rx="1.65517" fill="#C2DAFF"/>
<rect x="241.655" y="109.977" width="13.977" height="3.67816" rx="1.83908" fill="#C2DAFF"/>
<rect x="257.103" y="110.345" width="13.2414" height="3.31034" rx="1.65517" fill="#C2DAFF"/>
<rect x="241.655" y="78.3448" width="37.5172" height="23.1724" rx="2.2069" fill="#EF8BFF"/>
<rect x="81.6552" y="41.931" width="49.6552" height="9.93103" rx="4.96552" fill="#C2DAFF"/>
<rect x="137.931" y="41.931" width="58.4828" height="9.93103" rx="4.96552" fill="#C2DAFF"/>
<circle cx="267.508" cy="45.7144" r="5.24462" transform="rotate(-45 267.508 45.7144)" fill="white" fill-opacity="0.35" stroke="#8265F5" stroke-width="1.10345"/>
<rect x="270.585" y="50.0699" width="1.80768" height="5.73485" transform="rotate(-45 270.585 50.0699)" fill="#8265F5"/>
<rect y="133.517" width="111.448" height="58.4828" rx="6.62069" fill="#6A48F2"/>
<rect y="133.517" width="111.448" height="58.4828" rx="6.62069" fill="url(#paint2_linear_10_87)"/>
<path d="M44.7806 174.959L23.9616 165.722V162.184L44.7806 151.774V157.884L32.0053 163.706L44.7806 168.89V174.959ZM65.291 148.112L54.0792 179.032H46.9612L58.173 148.112H65.291ZM67.2864 168.89L80.0617 163.706L67.2864 157.884V151.774L88.1054 162.184V165.722L67.2864 174.959V168.89Z" fill="white"/>
<g filter="url(#filter0_b_10_87)">
<circle cx="275.963" cy="131.411" r="37.5237" transform="rotate(-45 275.963 131.411)" fill="#8265F5" fill-opacity="0.1"/>
<circle cx="275.963" cy="131.411" r="34.8993" transform="rotate(-45 275.963 131.411)" stroke="#8265F5" stroke-width="5.24894"/>
</g>
<rect x="295.885" y="159.608" width="11.7024" height="37.1256" transform="rotate(-45 295.885 159.608)" fill="#8265F5"/>
<defs>
<filter id="filter0_b_10_87" x="235.786" y="91.2342" width="80.3546" height="80.3544" filterUnits="userSpaceOnUse" color-interpolation-filters="sRGB">
<feFlood flood-opacity="0" result="BackgroundImageFix"/>
<feGaussianBlur in="BackgroundImageFix" stdDeviation="1.32677"/>
<feComposite in2="SourceAlpha" operator="in" result="effect1_backgroundBlur_10_87"/>
<feBlend mode="normal" in="SourceGraphic" in2="effect1_backgroundBlur_10_87" result="shape"/>
</filter>
<linearGradient id="paint0_linear_10_87" x1="178.759" y1="0" x2="178.759" y2="168.828" gradientUnits="userSpaceOnUse">
<stop stop-color="#E0D9FF"/>
<stop offset="0.0001" stop-color="#F0ECFF"/>
<stop offset="1" stop-color="#CEC0FF" stop-opacity="0"/>
</linearGradient>
<linearGradient id="paint1_linear_10_87" x1="178.759" y1="0" x2="178.759" y2="168.828" gradientUnits="userSpaceOnUse">
<stop stop-color="#CCB0FF"/>
<stop offset="0.0001" stop-color="#D6C0FF"/>
<stop offset="0.270833" stop-color="white"/>
<stop offset="1" stop-color="#AA8AE7"/>
</linearGradient>
<linearGradient id="paint2_linear_10_87" x1="55.7241" y1="133.517" x2="56.2759" y2="198.621" gradientUnits="userSpaceOnUse">
<stop stop-color="#7858F4"/>
<stop offset="1" stop-color="white" stop-opacity="0"/>
</linearGradient>
</defs>
</svg>
