<svg width="120" height="120" viewBox="0 0 120 120" fill="none" xmlns="http://www.w3.org/2000/svg">
<circle cx="60" cy="60" r="55.5" stroke="url(#paint0_linear_195_533)" stroke-width="9"/>
<g clip-path="url(#clip0_195_533)">
<path d="M42.625 53.875C42.6249 51.0885 43.3149 48.3452 44.6334 45.8903C45.9518 43.4353 47.8577 41.3451 50.1808 39.8062C52.5039 38.2673 55.172 37.3276 57.9468 37.0712C60.7215 36.8147 63.5166 37.2493 66.0825 38.3363C68.6483 39.4232 70.905 41.1287 72.6512 43.3004C74.3973 45.472 75.5784 48.0423 76.0892 50.7817C76.5999 53.5211 76.4243 56.3443 75.578 58.9993C74.7317 61.6543 73.2412 64.0584 71.2394 65.9969C70.6684 66.5482 70.2297 67.1219 69.9653 67.7379L67.8222 72.7132C67.7135 72.9653 67.5333 73.1801 67.3039 73.3311C67.0744 73.482 66.8059 73.5625 66.5313 73.5625C66.9042 73.5625 67.2619 73.7107 67.5256 73.9744C67.7894 74.2381 67.9375 74.5958 67.9375 74.9688C67.9375 75.3418 67.7894 75.6994 67.5256 75.9632C67.2619 76.2269 66.9042 76.375 66.5313 76.375C66.9042 76.375 67.2619 76.5232 67.5256 76.7869C67.7894 77.0506 67.9375 77.4083 67.9375 77.7813C67.9375 78.1543 67.7894 78.5119 67.5256 78.7757C67.2619 79.0394 66.9042 79.1875 66.5313 79.1875L65.9013 80.4447C65.6678 80.9118 65.309 81.3047 64.8649 81.5794C64.4208 81.8541 63.9091 81.9998 63.3869 82H55.6131C55.091 81.9998 54.5792 81.8541 54.1351 81.5794C53.691 81.3047 53.3322 80.9118 53.0988 80.4447L52.4688 79.1875C52.0958 79.1875 51.7381 79.0394 51.4744 78.7757C51.2107 78.5119 51.0625 78.1543 51.0625 77.7813C51.0625 77.4083 51.2107 77.0506 51.4744 76.7869C51.7381 76.5232 52.0958 76.375 52.4688 76.375C52.0958 76.375 51.7381 76.2269 51.4744 75.9632C51.2107 75.6994 51.0625 75.3418 51.0625 74.9688C51.0625 74.5958 51.2107 74.2381 51.4744 73.9744C51.7381 73.7107 52.0958 73.5625 52.4688 73.5625C52.1937 73.563 51.9245 73.4828 51.6945 73.3318C51.4646 73.1809 51.2839 72.9658 51.175 72.7132L49.0347 67.735C48.7282 67.0776 48.2953 66.487 47.7606 65.9969C46.134 64.4252 44.8408 62.5417 43.9584 60.459C43.076 58.3762 42.6225 56.137 42.625 53.875ZM59.5 39.8125C56.6992 39.8121 53.9621 40.6479 51.6394 42.213C49.3167 43.7781 47.5143 46.0012 46.4631 48.5972C45.4119 51.1933 45.1599 54.0441 45.7393 56.7843C46.3188 59.5245 47.7032 62.0292 49.7153 63.9775C50.455 64.6919 51.1609 65.5638 51.6166 66.6241L53.3969 70.75H65.6088L67.3863 66.6241C67.8419 65.5638 68.5478 64.6919 69.2875 63.9775C71.2998 62.0291 72.6843 59.524 73.2636 56.7836C73.843 54.0431 73.5907 51.1921 72.5392 48.5959C71.4877 45.9998 69.6848 43.7768 67.3617 42.2119C65.0386 40.647 62.301 39.8115 59.5 39.8125Z" fill="#8000FF"/>
</g>
<defs>
<linearGradient id="paint0_linear_195_533" x1="60" y1="2.1855e-07" x2="52.6667" y2="168" gradientUnits="userSpaceOnUse">
<stop stop-color="#8000FF"/>
<stop offset="1" stop-color="#8000FF" stop-opacity="0"/>
</linearGradient>
<clipPath id="clip0_195_533">
<rect width="45" height="45" fill="white" transform="translate(37 37)"/>
</clipPath>
</defs>
</svg>
