<svg width="120" height="120" viewBox="0 0 120 120" fill="none" xmlns="http://www.w3.org/2000/svg">
<circle cx="60" cy="60" r="55.5" stroke="url(#paint0_linear_195_529)" stroke-width="9"/>
<g clip-path="url(#clip0_195_529)">
<path d="M60.9062 52.4688C60.9062 52.0958 60.7581 51.7381 60.4944 51.4744C60.2306 51.2107 59.873 51.0625 59.5 51.0625C59.127 51.0625 58.7694 51.2107 58.5056 51.4744C58.2419 51.7381 58.0938 52.0958 58.0938 52.4688V61.9244L54.0747 68.6181C53.8826 68.9381 53.8255 69.3213 53.916 69.6834C54.0064 70.0455 54.237 70.3568 54.557 70.5489C54.877 70.741 55.2602 70.7981 55.6223 70.7076C55.9844 70.6172 56.2957 70.3866 56.4878 70.0666L60.7066 63.0353C60.8373 62.8169 60.9063 62.5671 60.9062 62.3125V52.4688Z" fill="#8000FF"/>
<path d="M55.2812 37C54.9083 37 54.5506 37.1482 54.2869 37.4119C54.0232 37.6756 53.875 38.0333 53.875 38.4062C53.875 38.7792 54.0232 39.1369 54.2869 39.4006C54.5506 39.6643 54.9083 39.8125 55.2812 39.8125H56.6875V42.8219C52.8576 43.3752 49.2757 45.0447 46.3892 47.6219C43.5027 50.1991 41.4395 53.5696 40.4574 57.3126C39.4753 61.0555 39.6178 65.0048 40.8672 68.6672C42.1166 72.3296 44.4174 75.5426 47.4822 77.905L45.7891 79.5981C45.525 79.8618 45.3765 80.2196 45.3762 80.5928C45.376 80.9659 45.524 81.3239 45.7877 81.588C46.0513 81.852 46.4091 82.0005 46.7823 82.0008C47.1555 82.001 47.5134 81.8531 47.7775 81.5894L49.8756 79.4912C52.8147 81.141 56.1296 82.005 59.5 82C62.8704 82.005 66.1853 81.141 69.1244 79.4912L71.2225 81.5894C71.4866 81.8531 71.8445 82.001 72.2177 82.0008C72.5909 82.0005 72.9487 81.852 73.2123 81.588C73.476 81.3239 73.624 80.9659 73.6238 80.5928C73.6235 80.2196 73.475 79.8618 73.2109 79.5981L71.5206 77.905C74.5855 75.5424 76.8863 72.3291 78.1355 68.6666C79.3847 65.004 79.527 61.0545 78.5446 57.3115C77.5622 53.5685 75.4986 50.1979 72.6117 47.6209C69.7248 45.0439 66.1426 43.3747 62.3125 42.8219V39.8125H63.7188C64.0917 39.8125 64.4494 39.6643 64.7131 39.4006C64.9768 39.1369 65.125 38.7792 65.125 38.4062C65.125 38.0333 64.9768 37.6756 64.7131 37.4119C64.4494 37.1482 64.0917 37 63.7188 37H55.2812ZM58.2006 45.4881C59.0656 45.4223 59.9344 45.4223 60.7994 45.4881C65.1494 45.8241 69.2002 47.8318 72.1019 51.0899C75.0036 54.3481 76.5306 58.6035 76.3625 62.9632C76.1944 67.3229 74.3442 71.4481 71.2003 74.4731C68.0564 77.4982 63.863 79.188 59.5 79.188C55.137 79.188 50.9436 77.4982 47.7997 74.4731C44.6558 71.4481 42.8056 67.3229 42.6375 62.9632C42.4694 58.6035 43.9964 54.3481 46.8981 51.0899C49.7998 47.8318 53.8506 45.8241 58.2006 45.4881ZM37 46.8438C37 48.9616 37.9366 50.8628 39.4188 52.1509C41.5893 47.8758 45.0633 44.4018 49.3384 42.2312C48.3987 41.1499 47.1511 40.3815 45.7626 40.0287C44.3742 39.6759 42.9111 39.7557 41.5692 40.2573C40.2273 40.759 39.0706 41.6586 38.254 42.8356C37.4375 44.0127 36.9999 45.4112 37 46.8438ZM74.9688 39.8125C72.8509 39.8125 70.9497 40.7491 69.6616 42.2312C73.9367 44.4018 77.4107 47.8758 79.5812 52.1509C80.6626 51.2112 81.431 49.9636 81.7838 48.5751C82.1366 47.1867 82.0568 45.7236 81.5552 44.3817C81.0535 43.0398 80.1539 41.8831 78.9769 41.0665C77.7998 40.25 76.4013 39.8124 74.9688 39.8125Z" fill="#8000FF"/>
</g>
<defs>
<linearGradient id="paint0_linear_195_529" x1="60" y1="2.1855e-07" x2="52.6667" y2="168" gradientUnits="userSpaceOnUse">
<stop stop-color="#8000FF"/>
<stop offset="1" stop-color="#8000FF" stop-opacity="0"/>
</linearGradient>
<clipPath id="clip0_195_529">
<rect width="45" height="45" fill="white" transform="translate(37 37)"/>
</clipPath>
</defs>
</svg>
