<svg width="120" height="120" viewBox="0 0 120 120" fill="none" xmlns="http://www.w3.org/2000/svg">
<circle cx="60" cy="60" r="55.5" stroke="url(#paint0_linear_195_528)" stroke-width="9"/>
<path fill-rule="evenodd" clip-rule="evenodd" d="M67.5269 57.0981C67.6578 57.2288 67.7617 57.3839 67.8326 57.5548C67.9035 57.7256 67.94 57.9088 67.94 58.0938C67.94 58.2787 67.9035 58.4619 67.8326 58.6327C67.7617 58.8036 67.6578 58.9587 67.5269 59.0894L59.0894 67.5269C58.9587 67.6578 58.8036 67.7617 58.6327 67.8326C58.4619 67.9035 58.2787 67.94 58.0938 67.94C57.9088 67.94 57.7256 67.9035 57.5548 67.8326C57.3839 67.7617 57.2288 67.6578 57.0981 67.5269L52.8794 63.3081C52.7486 63.1774 52.6449 63.0222 52.5742 62.8513C52.5034 62.6805 52.467 62.4974 52.467 62.3125C52.467 62.1276 52.5034 61.9445 52.5742 61.7737C52.6449 61.6028 52.7486 61.4476 52.8794 61.3169C53.1434 61.0528 53.5016 60.9045 53.875 60.9045C54.0599 60.9045 54.243 60.9409 54.4138 61.0117C54.5847 61.0824 54.7399 61.1861 54.8706 61.3169L58.0938 64.5428L65.5356 57.0981C65.6663 56.9672 65.8214 56.8633 65.9923 56.7924C66.1631 56.7215 66.3463 56.685 66.5312 56.685C66.7162 56.685 66.8994 56.7215 67.0702 56.7924C67.2411 56.8633 67.3962 56.9672 67.5269 57.0981Z" fill="#8000FF"/>
<path d="M48.25 41.2188H45.4375C43.9457 41.2188 42.5149 41.8114 41.46 42.8663C40.4051 43.9212 39.8125 45.3519 39.8125 46.8438V76.375C39.8125 77.8668 40.4051 79.2976 41.46 80.3525C42.5149 81.4074 43.9457 82 45.4375 82H73.5625C75.0543 82 76.4851 81.4074 77.54 80.3525C78.5949 79.2976 79.1875 77.8668 79.1875 76.375V46.8438C79.1875 45.3519 78.5949 43.9212 77.54 42.8663C76.4851 41.8114 75.0543 41.2188 73.5625 41.2188H70.75V44.0312H73.5625C74.3084 44.0312 75.0238 44.3276 75.5512 44.855C76.0787 45.3825 76.375 46.0978 76.375 46.8438V76.375C76.375 77.1209 76.0787 77.8363 75.5512 78.3637C75.0238 78.8912 74.3084 79.1875 73.5625 79.1875H45.4375C44.6916 79.1875 43.9762 78.8912 43.4488 78.3637C42.9213 77.8363 42.625 77.1209 42.625 76.375V46.8438C42.625 46.0978 42.9213 45.3825 43.4488 44.855C43.9762 44.3276 44.6916 44.0312 45.4375 44.0312H48.25V41.2188Z" fill="#8000FF"/>
<path d="M63.7188 39.8125C64.0917 39.8125 64.4494 39.9607 64.7131 40.2244C64.9768 40.4881 65.125 40.8458 65.125 41.2188V44.0312C65.125 44.4042 64.9768 44.7619 64.7131 45.0256C64.4494 45.2893 64.0917 45.4375 63.7188 45.4375H55.2812C54.9083 45.4375 54.5506 45.2893 54.2869 45.0256C54.0232 44.7619 53.875 44.4042 53.875 44.0312V41.2188C53.875 40.8458 54.0232 40.4881 54.2869 40.2244C54.5506 39.9607 54.9083 39.8125 55.2812 39.8125H63.7188ZM55.2812 37C54.1624 37 53.0893 37.4445 52.2981 38.2356C51.507 39.0268 51.0625 40.0999 51.0625 41.2188V44.0312C51.0625 45.1501 51.507 46.2232 52.2981 47.0144C53.0893 47.8055 54.1624 48.25 55.2812 48.25H63.7188C64.8376 48.25 65.9107 47.8055 66.7019 47.0144C67.493 46.2232 67.9375 45.1501 67.9375 44.0312V41.2188C67.9375 40.0999 67.493 39.0268 66.7019 38.2356C65.9107 37.4445 64.8376 37 63.7188 37H55.2812Z" fill="#8000FF"/>
<defs>
<linearGradient id="paint0_linear_195_528" x1="60" y1="2.1855e-07" x2="52.6667" y2="168" gradientUnits="userSpaceOnUse">
<stop stop-color="#8000FF"/>
<stop offset="1" stop-color="#8000FF" stop-opacity="0"/>
</linearGradient>
</defs>
</svg>
