<svg width="120" height="120" viewBox="0 0 120 120" fill="none" xmlns="http://www.w3.org/2000/svg">
<circle cx="60" cy="60" r="55.5" stroke="url(#paint0_linear_195_537)" stroke-width="9"/>
<path fill-rule="evenodd" clip-rule="evenodd" d="M40 44.2188C40 43.0999 40.4445 42.0268 41.2356 41.2356C42.0268 40.4445 43.0999 40 44.2188 40H47.0312C48.1501 40 49.2232 40.4445 50.0144 41.2356C50.8055 42.0268 51.25 43.0999 51.25 44.2188H62.8769C63.1864 43.6826 63.6643 43.2635 64.2363 43.0266C64.8083 42.7897 65.4425 42.7481 66.0405 42.9083C66.6385 43.0686 67.167 43.4217 67.5439 43.9129C67.9208 44.404 68.1251 45.0059 68.1251 45.625C68.1251 46.2441 67.9208 46.846 67.5439 47.3371C67.167 47.8283 66.6385 48.1814 66.0405 48.3417C65.4425 48.5019 64.8083 48.4603 64.2363 48.2234C63.6643 47.9865 63.1864 47.5674 62.8769 47.0312H57.2238C57.73 47.5375 58.18 48.1028 58.585 48.7328C60.3794 51.5228 61.0938 55.3534 61.0938 59.6875C61.0938 65.2928 61.8166 68.3837 63.0991 70.0938C64.1003 71.4325 65.6162 72.1216 68.125 72.2988C68.1369 71.1877 68.5866 70.1262 69.3764 69.3447C70.1663 68.5632 71.2326 68.1249 72.3438 68.125H75.1562C76.2751 68.125 77.3482 68.5695 78.1394 69.3606C78.9305 70.1518 79.375 71.2249 79.375 72.3438V75.1562C79.375 76.2751 78.9305 77.3482 78.1394 78.1394C77.3482 78.9305 76.2751 79.375 75.1562 79.375H72.3438C71.2249 79.375 70.1518 78.9305 69.3606 78.1394C68.5695 77.3482 68.125 76.2751 68.125 75.1562H56.4981C56.1886 75.6924 55.7107 76.1115 55.1387 76.3484C54.5667 76.5853 53.9325 76.6269 53.3345 76.4667C52.7365 76.3064 52.208 75.9533 51.8311 75.4621C51.4542 74.971 51.2499 74.3691 51.2499 73.75C51.2499 73.1309 51.4542 72.529 51.8311 72.0379C52.208 71.5467 52.7365 71.1936 53.3345 71.0333C53.9325 70.8731 54.5667 70.9147 55.1387 71.1516C55.7107 71.3885 56.1886 71.8076 56.4981 72.3438H61.3103C61.1471 72.1634 60.9923 71.9757 60.8462 71.7812C58.9647 69.2697 58.2812 65.3322 58.2812 59.6875C58.2812 55.5813 57.5894 52.3834 56.2197 50.2516C55.1228 48.55 53.5422 47.4391 51.25 47.1241C51.2257 48.2268 50.7706 49.2761 49.982 50.0473C49.1935 50.8186 48.1342 51.2503 47.0312 51.25H44.2188C43.0999 51.25 42.0268 50.8055 41.2356 50.0144C40.4445 49.2232 40 48.1501 40 47.0312V44.2188ZM44.2188 42.8125C43.8458 42.8125 43.4881 42.9607 43.2244 43.2244C42.9607 43.4881 42.8125 43.8458 42.8125 44.2188V47.0312C42.8125 47.4042 42.9607 47.7619 43.2244 48.0256C43.4881 48.2893 43.8458 48.4375 44.2188 48.4375H47.0312C47.4042 48.4375 47.7619 48.2893 48.0256 48.0256C48.2893 47.7619 48.4375 47.4042 48.4375 47.0312V44.2188C48.4375 43.8458 48.2893 43.4881 48.0256 43.2244C47.7619 42.9607 47.4042 42.8125 47.0312 42.8125H44.2188ZM72.3438 70.9375C71.9708 70.9375 71.6131 71.0857 71.3494 71.3494C71.0857 71.6131 70.9375 71.9708 70.9375 72.3438V75.1562C70.9375 75.5292 71.0857 75.8869 71.3494 76.1506C71.6131 76.4143 71.9708 76.5625 72.3438 76.5625H75.1562C75.5292 76.5625 75.8869 76.4143 76.1506 76.1506C76.4143 75.8869 76.5625 75.5292 76.5625 75.1562V72.3438C76.5625 71.9708 76.4143 71.6131 76.1506 71.3494C75.8869 71.0857 75.5292 70.9375 75.1562 70.9375H72.3438Z" fill="#8000FF"/>
<defs>
<linearGradient id="paint0_linear_195_537" x1="60" y1="2.1855e-07" x2="52.6667" y2="168" gradientUnits="userSpaceOnUse">
<stop stop-color="#8000FF"/>
<stop offset="1" stop-color="#8000FF" stop-opacity="0"/>
</linearGradient>
</defs>
</svg>
