<svg width="362" height="145" viewBox="0 0 362 145" fill="none" xmlns="http://www.w3.org/2000/svg">
<g filter="url(#filter0_d_25_209)">
<path d="M66.919 10.6581C70.3801 11.8766 116.678 28.1761 125.973 31.4157C126.526 31.6085 126.519 32.3857 125.979 32.6129L69.8469 56.2295C69.6908 56.2952 69.5149 56.2956 69.3585 56.2308L12.2048 32.5554C11.6751 32.3359 11.6857 31.5819 12.2214 31.3775L66.4971 10.6688C66.6373 10.6153 66.7774 10.6082 66.919 10.6581Z" fill="white"/>
<path d="M66.919 10.6581C70.3801 11.8766 116.678 28.1761 125.973 31.4157C126.526 31.6085 126.519 32.3857 125.979 32.6129L69.8469 56.2295C69.6908 56.2952 69.5149 56.2956 69.3585 56.2308L12.2048 32.5554C11.6751 32.3359 11.6857 31.5819 12.2214 31.3775L66.4971 10.6688C66.6373 10.6153 66.7774 10.6082 66.919 10.6581Z" fill="url(#paint0_linear_25_209)"/>
<path d="M66.919 10.6581C70.3801 11.8766 116.678 28.1761 125.973 31.4157C126.526 31.6085 126.519 32.3857 125.979 32.6129L69.8469 56.2295C69.6908 56.2952 69.5149 56.2956 69.3585 56.2308L12.2048 32.5554C11.6751 32.3359 11.6857 31.5819 12.2214 31.3775L66.4971 10.6688C66.6373 10.6153 66.7774 10.6082 66.919 10.6581Z" stroke="white" stroke-width="0.7211"/>
<path d="M68.7405 55.6286C51.087 48.5666 17.2886 35.0042 11.0695 32.3542C10.6352 32.1692 10.1462 32.5025 10.1462 32.9746V107.96C10.1462 108.216 10.3007 108.448 10.5375 108.546L68.2532 132.455C68.6706 132.628 69.1297 132.321 69.1297 131.869V56.2135C69.1297 55.9543 68.9812 55.7249 68.7405 55.6286Z" fill="white"/>
<path d="M68.7405 55.6286C51.087 48.5666 17.2886 35.0042 11.0695 32.3542C10.6352 32.1692 10.1462 32.5025 10.1462 32.9746V107.96C10.1462 108.216 10.3007 108.448 10.5375 108.546L68.2532 132.455C68.6706 132.628 69.1297 132.321 69.1297 131.869V56.2135C69.1297 55.9543 68.9812 55.7249 68.7405 55.6286Z" fill="url(#paint1_linear_25_209)"/>
<path d="M68.7405 55.6286C51.087 48.5666 17.2886 35.0042 11.0695 32.3542C10.6352 32.1692 10.1462 32.5025 10.1462 32.9746V107.96C10.1462 108.216 10.3007 108.448 10.5375 108.546L68.2532 132.455C68.6706 132.628 69.1297 132.321 69.1297 131.869V56.2135C69.1297 55.9543 68.9812 55.7249 68.7405 55.6286Z" stroke="white" stroke-width="0.7211"/>
<path d="M69.6656 55.6286C87.3192 48.5666 121.118 35.0042 127.337 32.3542C127.771 32.1692 128.26 32.5025 128.26 32.9746V107.96C128.26 108.216 128.105 108.448 127.869 108.546L70.1529 132.455C69.7356 132.628 69.2764 132.321 69.2764 131.869V56.2135C69.2764 55.9543 69.4249 55.7249 69.6656 55.6286Z" fill="url(#paint2_linear_25_209)" stroke="white" stroke-width="0.7211"/>
</g>
<path d="M152.723 71.788V70.641C152.723 70.0897 152.79 69.5917 152.923 69.1471C153.065 68.7025 153.314 68.2802 153.67 67.88C154.026 67.4799 154.519 67.0798 155.151 66.6796C155.755 66.2973 156.2 65.9683 156.484 65.6926C156.769 65.4081 156.956 65.1502 157.044 64.919C157.133 64.6789 157.178 64.4389 157.178 64.1988C157.178 63.8253 157.009 63.5319 156.671 63.3185C156.333 63.0962 155.893 62.985 155.351 62.985C154.675 62.985 153.941 63.1051 153.15 63.3452C152.367 63.5852 151.531 63.9409 150.642 64.4122L148.788 60.7843C149.793 60.2063 150.865 59.7484 152.003 59.4105C153.141 59.0637 154.381 58.8903 155.724 58.8903C157.743 58.8903 159.307 59.3393 160.419 60.2374C161.53 61.1266 162.086 62.3003 162.086 63.7586C162.086 64.4522 161.98 65.088 161.766 65.6659C161.553 66.2439 161.215 66.7863 160.752 67.2932C160.29 67.8 159.681 68.298 158.925 68.787C158.392 69.1249 157.969 69.4139 157.658 69.654C157.356 69.8941 157.138 70.1253 157.004 70.3476C156.88 70.5699 156.818 70.8233 156.818 71.1078V71.788H152.723ZM152.149 76.4563C152.149 75.5138 152.421 74.8513 152.963 74.469C153.514 74.0866 154.181 73.8954 154.964 73.8954C155.711 73.8954 156.355 74.0866 156.898 74.469C157.449 74.8513 157.725 75.5138 157.725 76.4563C157.725 77.3544 157.449 78.0035 156.898 78.4037C156.355 78.8038 155.711 79.0039 154.964 79.0039C154.181 79.0039 153.514 78.8038 152.963 78.4037C152.421 78.0035 152.149 77.3544 152.149 76.4563ZM166.514 71.788V70.641C166.514 70.0897 166.581 69.5917 166.714 69.1471C166.857 68.7025 167.106 68.2802 167.461 67.88C167.817 67.4799 168.311 67.0798 168.942 66.6796C169.547 66.2973 169.991 65.9683 170.276 65.6926C170.56 65.4081 170.747 65.1502 170.836 64.919C170.925 64.6789 170.969 64.4389 170.969 64.1988C170.969 63.8253 170.8 63.5319 170.462 63.3185C170.125 63.0962 169.684 62.985 169.142 62.985C168.466 62.985 167.733 63.1051 166.941 63.3452C166.159 63.5852 165.323 63.9409 164.434 64.4122L162.58 60.7843C163.585 60.2063 164.656 59.7484 165.794 59.4105C166.932 59.0637 168.173 58.8903 169.515 58.8903C171.534 58.8903 173.099 59.3393 174.21 60.2374C175.322 61.1266 175.878 62.3003 175.878 63.7586C175.878 64.4522 175.771 65.088 175.558 65.6659C175.344 66.2439 175.006 66.7863 174.544 67.2932C174.081 67.8 173.472 68.298 172.717 68.787C172.183 69.1249 171.761 69.4139 171.449 69.654C171.147 69.8941 170.929 70.1253 170.796 70.3476C170.671 70.5699 170.609 70.8233 170.609 71.1078V71.788H166.514ZM165.941 76.4563C165.941 75.5138 166.212 74.8513 166.754 74.469C167.306 74.0866 167.973 73.8954 168.755 73.8954C169.502 73.8954 170.147 74.0866 170.689 74.469C171.24 74.8513 171.516 75.5138 171.516 76.4563C171.516 77.3544 171.24 78.0035 170.689 78.4037C170.147 78.8038 169.502 79.0039 168.755 79.0039C167.973 79.0039 167.306 78.8038 166.754 78.4037C166.212 78.0035 165.941 77.3544 165.941 76.4563ZM180.306 71.788V70.641C180.306 70.0897 180.373 69.5917 180.506 69.1471C180.648 68.7025 180.897 68.2802 181.253 67.88C181.608 67.4799 182.102 67.0798 182.733 66.6796C183.338 66.2973 183.783 65.9683 184.067 65.6926C184.352 65.4081 184.538 65.1502 184.627 64.919C184.716 64.6789 184.761 64.4389 184.761 64.1988C184.761 63.8253 184.592 63.5319 184.254 63.3185C183.916 63.0962 183.476 62.985 182.933 62.985C182.258 62.985 181.524 63.1051 180.733 63.3452C179.95 63.5852 179.114 63.9409 178.225 64.4122L176.371 60.7843C177.376 60.2063 178.447 59.7484 179.586 59.4105C180.724 59.0637 181.964 58.8903 183.307 58.8903C185.325 58.8903 186.89 59.3393 188.002 60.2374C189.113 61.1266 189.669 62.3003 189.669 63.7586C189.669 64.4522 189.562 65.088 189.349 65.6659C189.136 66.2439 188.798 66.7863 188.335 67.2932C187.873 67.8 187.264 68.298 186.508 68.787C185.974 69.1249 185.552 69.4139 185.241 69.654C184.939 69.8941 184.721 70.1253 184.587 70.3476C184.463 70.5699 184.401 70.8233 184.401 71.1078V71.788H180.306ZM179.732 76.4563C179.732 75.5138 180.003 74.8513 180.546 74.469C181.097 74.0866 181.764 73.8954 182.547 73.8954C183.294 73.8954 183.938 74.0866 184.481 74.469C185.032 74.8513 185.308 75.5138 185.308 76.4563C185.308 77.3544 185.032 78.0035 184.481 78.4037C183.938 78.8038 183.294 79.0039 182.547 79.0039C181.764 79.0039 181.097 78.8038 180.546 78.4037C180.003 78.0035 179.732 77.3544 179.732 76.4563ZM203.874 83.7255H190.109V80.4444H203.874V83.7255ZM222.507 59.1704V70.9077C222.507 72.5439 222.196 73.9666 221.573 75.1759C220.951 76.3763 220.017 77.3055 218.772 77.9635C217.527 78.6126 215.967 78.9372 214.091 78.9372C211.405 78.9372 209.356 78.248 207.942 76.8698C206.528 75.4915 205.821 73.5442 205.821 71.0278V59.1704H211.116V70.6143C211.116 71.9926 211.374 72.9929 211.89 73.6153C212.406 74.2378 213.166 74.549 214.171 74.549C214.891 74.549 215.478 74.4156 215.931 74.1489C216.385 73.8732 216.714 73.4419 216.918 72.8551C217.132 72.2682 217.238 71.5124 217.238 70.5876V59.1704H222.507ZM245.168 78.6704H238.259L231.137 64.9324H231.017C231.061 65.3503 231.101 65.8527 231.137 66.4395C231.172 67.0264 231.203 67.6266 231.23 68.2402C231.257 68.8448 231.27 69.3917 231.27 69.8807V78.6704H226.602V59.1704H233.484L240.58 72.7217H240.66C240.633 72.2949 240.607 71.8014 240.58 71.2412C240.553 70.6721 240.526 70.0986 240.5 69.5206C240.482 68.9426 240.473 68.4313 240.473 67.9867V59.1704H245.168V78.6704ZM266.042 78.6704H260.093L256.239 71.2145L254.678 72.1482V78.6704H249.383V59.1704H254.678V67.64C254.9 67.2131 255.154 66.7863 255.438 66.3595C255.732 65.9327 256.016 65.5281 256.292 65.1458L260.387 59.1704H266.149L260 67.9067L266.042 78.6704ZM286.729 78.6704H279.82L272.698 64.9324H272.577C272.622 65.3503 272.662 65.8527 272.698 66.4395C272.733 67.0264 272.764 67.6266 272.791 68.2402C272.818 68.8448 272.831 69.3917 272.831 69.8807V78.6704H268.163V59.1704H275.045L282.141 72.7217H282.221C282.194 72.2949 282.167 71.8014 282.141 71.2412C282.114 70.6721 282.087 70.0986 282.061 69.5206C282.043 68.9426 282.034 68.4313 282.034 67.9867V59.1704H286.729V78.6704ZM309.19 68.8937C309.19 70.3965 309.008 71.7658 308.643 73.0018C308.288 74.2289 307.727 75.287 306.963 76.1762C306.198 77.0654 305.215 77.7501 304.015 78.2303C302.815 78.7015 301.378 78.9372 299.707 78.9372C298.071 78.9372 296.652 78.7015 295.452 78.2303C294.26 77.7501 293.278 77.0699 292.504 76.1896C291.731 75.3004 291.157 74.2378 290.784 73.0018C290.41 71.7658 290.224 70.3876 290.224 68.867C290.224 66.8397 290.557 65.0791 291.224 63.5852C291.9 62.0825 292.94 60.9221 294.345 60.104C295.75 59.2771 297.546 58.8636 299.733 58.8636C301.956 58.8636 303.762 59.2771 305.149 60.104C306.545 60.931 307.567 62.0958 308.216 63.5986C308.865 65.1013 309.19 66.8664 309.19 68.8937ZM295.772 68.8937C295.772 70.0675 295.905 71.0767 296.172 71.9214C296.439 72.7662 296.861 73.4153 297.439 73.8688C298.017 74.3223 298.773 74.549 299.707 74.549C300.676 74.549 301.445 74.3223 302.014 73.8688C302.592 73.4153 303.006 72.7662 303.255 71.9214C303.513 71.0767 303.641 70.0675 303.641 68.8937C303.641 67.1331 303.348 65.7415 302.761 64.719C302.174 63.6964 301.165 63.1851 299.733 63.1851C298.782 63.1851 298.013 63.4163 297.426 63.8787C296.848 64.341 296.426 64.9991 296.159 65.8527C295.901 66.7063 295.772 67.72 295.772 68.8937ZM338.573 59.1704L333.772 78.6704H327.543L325.676 70.1742C325.64 70.0141 325.582 69.7429 325.502 69.3605C325.431 68.9782 325.347 68.5425 325.249 68.0534C325.16 67.5644 325.076 67.0842 324.995 66.6129C324.924 66.1328 324.871 65.7282 324.835 65.3992C324.8 65.7282 324.742 66.1328 324.662 66.6129C324.582 67.0842 324.493 67.5644 324.395 68.0534C324.306 68.5425 324.217 68.9782 324.129 69.3605C324.048 69.7429 323.991 70.0141 323.955 70.1742L322.074 78.6704H315.846L311.017 59.1704H316.099L318.22 68.9471C318.273 69.1872 318.344 69.5295 318.433 69.9741C318.531 70.4098 318.629 70.89 318.727 71.4146C318.833 71.9303 318.931 72.4283 319.02 72.9084C319.109 73.3886 319.171 73.7887 319.207 74.1088C319.278 73.5575 319.371 72.9307 319.487 72.2282C319.611 71.5257 319.745 70.8144 319.887 70.0941C320.038 69.365 320.18 68.6892 320.314 68.0668C320.447 67.4443 320.563 66.9375 320.661 66.5462L322.381 59.1704H327.263L328.93 66.5462C329.019 66.9286 329.13 67.4354 329.264 68.0668C329.406 68.6892 329.548 69.365 329.69 70.0941C329.842 70.8233 329.979 71.5435 330.104 72.2549C330.228 72.9573 330.322 73.5753 330.384 74.1088C330.437 73.6642 330.526 73.1041 330.651 72.4283C330.775 71.7436 330.9 71.0811 331.024 70.4409C331.158 69.7918 331.26 69.3028 331.331 68.9737L333.492 59.1704H338.573ZM359.661 78.6704H352.752L345.629 64.9324H345.509C345.554 65.3503 345.594 65.8527 345.629 66.4395C345.665 67.0264 345.696 67.6266 345.723 68.2402C345.749 68.8448 345.763 69.3917 345.763 69.8807V78.6704H341.094V59.1704H347.977L355.072 72.7217H355.152C355.126 72.2949 355.099 71.8014 355.072 71.2412C355.046 70.6721 355.019 70.0986 354.992 69.5206C354.975 68.9426 354.966 68.4313 354.966 67.9867V59.1704H359.661V78.6704Z" fill="black"/>
<defs>
<filter id="filter0_d_25_209" x="0.359806" y="2.86998" width="137.687" height="141.453" filterUnits="userSpaceOnUse" color-interpolation-filters="sRGB">
<feFlood flood-opacity="0" result="BackgroundImageFix"/>
<feColorMatrix in="SourceAlpha" type="matrix" values="0 0 0 0 0 0 0 0 0 0 0 0 0 0 0 0 0 0 127 0" result="hardAlpha"/>
<feOffset dy="2.03202"/>
<feGaussianBlur stdDeviation="4.71292"/>
<feComposite in2="hardAlpha" operator="out"/>
<feColorMatrix type="matrix" values="0 0 0 0 0.784 0 0 0 0 0.325 0 0 0 0 1 0 0 0 0.25 0"/>
<feBlend mode="normal" in2="BackgroundImageFix" result="effect1_dropShadow_25_209"/>
<feBlend mode="normal" in="SourceGraphic" in2="effect1_dropShadow_25_209" result="shape"/>
</filter>
<linearGradient id="paint0_linear_25_209" x1="66.7713" y1="-13.1208" x2="69.1354" y2="90.3541" gradientUnits="userSpaceOnUse">
<stop stop-color="#AF5FFF"/>
<stop offset="1" stop-color="#8000FF"/>
</linearGradient>
<linearGradient id="paint1_linear_25_209" x1="39.638" y1="31.9456" x2="39.638" y2="132.818" gradientUnits="userSpaceOnUse">
<stop stop-color="#AF5FFF"/>
<stop offset="1" stop-color="#8000FF"/>
</linearGradient>
<linearGradient id="paint2_linear_25_209" x1="98.7682" y1="31.9456" x2="98.7682" y2="132.818" gradientUnits="userSpaceOnUse">
<stop stop-color="#AF5FFF"/>
<stop offset="1" stop-color="#8000FF"/>
</linearGradient>
</defs>
</svg>
