<svg width="169" height="211" viewBox="0 0 169 211" fill="none" xmlns="http://www.w3.org/2000/svg">
<g clip-path="url(#clip0_16_107)">
<rect x="31.4387" width="109.539" height="210.179" rx="10.2693" fill="white"/>
<rect x="74.5385" y="17.2308" width="51.3465" height="6.16158" rx="3.08079" fill="#B895FF"/>
<rect x="74.5385" y="28.1847" width="34.9156" height="6.16158" rx="3.08079" fill="#B895FF"/>
<circle cx="55.1538" cy="25.8462" r="8.61539" fill="#B895FF"/>
</g>
<rect x="32.8079" y="1.36924" width="106.801" height="207.44" rx="8.90007" stroke="url(#paint0_linear_16_107)" stroke-width="2.73848"/>
<g filter="url(#filter0_d_16_107)">
<rect x="45.4615" y="60.3077" width="51.6923" height="33.9231" rx="3.4231" fill="white"/>
</g>
<rect x="64.8461" y="67.3077" width="11.3077" height="2.69231" rx="1.34615" fill="#B895FF"/>
<rect x="77.2308" y="67.3077" width="11.3077" height="2.69231" rx="1.34615" fill="#B895FF"/>
<rect x="64.8461" y="71.6154" width="20.4615" height="2.69231" rx="1.34615" fill="#B895FF"/>
<rect x="54.0769" y="75.9231" width="12.9231" height="2.69231" rx="1.34615" fill="#B895FF"/>
<rect x="68.6154" y="75.9231" width="19.3846" height="2.69231" rx="1.34615" fill="#B895FF"/>
<rect x="52.4615" y="86.1538" width="36.6154" height="2.69231" rx="1.34615" fill="#FFCA0E" fill-opacity="0.25"/>
<rect x="52.4615" y="86.1538" width="15.6154" height="2.69231" rx="1.34615" fill="#FFCA0E"/>
<path d="M57.5483 66.937C57.6807 66.7132 58.0116 66.7132 58.1439 66.937L61.5688 72.7272C61.7011 72.951 61.5357 73.2307 61.271 73.2307H54.4213C54.1566 73.2307 53.9911 72.951 54.1235 72.7272L57.5483 66.937Z" fill="#B895FF"/>
<g filter="url(#filter1_d_16_107)">
<rect x="106.308" y="60.3077" width="51.6923" height="33.9231" rx="3.4231" fill="white"/>
</g>
<rect x="125.692" y="67.3077" width="11.3077" height="2.69231" rx="1.34615" fill="#A4FF95"/>
<rect x="138.077" y="67.3077" width="11.3077" height="2.69231" rx="1.34615" fill="#A4FF95"/>
<rect x="125.692" y="71.6154" width="20.4615" height="2.69231" rx="1.34615" fill="#A4FF95"/>
<rect x="114.923" y="75.9231" width="12.9231" height="2.69231" rx="1.34615" fill="#A4FF95"/>
<rect x="129.462" y="75.9231" width="19.3846" height="2.69231" rx="1.34615" fill="#A4FF95"/>
<rect x="113.308" y="86.1538" width="36.6154" height="2.69231" rx="1.34615" fill="#FFCA0E" fill-opacity="0.25"/>
<rect x="113.308" y="86.1538" width="31.7692" height="2.69231" rx="1.34615" fill="#FFCA0E"/>
<path d="M118.395 66.937C118.527 66.7132 118.858 66.7132 118.99 66.937L122.415 72.7272C122.547 72.951 122.382 73.2307 122.117 73.2307H115.267C115.003 73.2307 114.837 72.951 114.97 72.7272L118.395 66.937Z" fill="#A4FF95"/>
<g filter="url(#filter2_d_16_107)">
<rect x="11" y="108.231" width="98.5385" height="71.0769" rx="3.4231" fill="white"/>
</g>
<path d="M40.8846 145.923L27.6923 148.885V170.423H93.6539V134.615L79.6539 140.538L67 145.385L53.8077 147.808L40.8846 145.923Z" fill="url(#paint1_linear_16_107)" stroke="url(#paint2_linear_16_107)" stroke-width="0.538462"/>
<rect x="36.9545" y="117.408" width="20.2922" height="2.60156" rx="1.30078" fill="#FFCA0E"/>
<rect x="36.9545" y="122.611" width="20.2922" height="2.60156" rx="1.30078" fill="#FFF2C3"/>
<rect x="60.3685" y="122.611" width="26.0156" height="2.60156" rx="1.30078" fill="#FFF2C3"/>
<rect x="36.9545" y="127.814" width="13.5281" height="2.60156" rx="1.30078" fill="#FFF2C3"/>
<rect x="53.6045" y="127.814" width="35.9015" height="2.60156" rx="1.30078" fill="#FFF2C3"/>
<rect x="15.7313" y="116.039" width="15.0617" height="15.0617" rx="7.53083" fill="#FFCA0E"/>
<rect x="35.7692" y="152.531" width="0.431698" height="14.246" fill="white"/>
<rect x="45.6983" y="152.531" width="0.431698" height="14.246" fill="white"/>
<rect x="55.6273" y="152.531" width="0.431698" height="14.246" fill="white"/>
<rect x="65.5564" y="152.531" width="0.431698" height="14.246" fill="white"/>
<rect x="75.4854" y="152.531" width="0.431698" height="14.246" fill="white"/>
<rect x="85.4145" y="152.531" width="0.431698" height="14.246" fill="white"/>
<defs>
<filter id="filter0_d_16_107" x="34.5076" y="52.0923" width="73.6002" height="55.831" filterUnits="userSpaceOnUse" color-interpolation-filters="sRGB">
<feFlood flood-opacity="0" result="BackgroundImageFix"/>
<feColorMatrix in="SourceAlpha" type="matrix" values="0 0 0 0 0 0 0 0 0 0 0 0 0 0 0 0 0 0 127 0" result="hardAlpha"/>
<feOffset dy="2.73848"/>
<feGaussianBlur stdDeviation="5.47696"/>
<feComposite in2="hardAlpha" operator="out"/>
<feColorMatrix type="matrix" values="0 0 0 0 0 0 0 0 0 0 0 0 0 0 0 0 0 0 0.25 0"/>
<feBlend mode="normal" in2="BackgroundImageFix" result="effect1_dropShadow_16_107"/>
<feBlend mode="normal" in="SourceGraphic" in2="effect1_dropShadow_16_107" result="shape"/>
</filter>
<filter id="filter1_d_16_107" x="95.3537" y="52.0923" width="73.6002" height="55.831" filterUnits="userSpaceOnUse" color-interpolation-filters="sRGB">
<feFlood flood-opacity="0" result="BackgroundImageFix"/>
<feColorMatrix in="SourceAlpha" type="matrix" values="0 0 0 0 0 0 0 0 0 0 0 0 0 0 0 0 0 0 127 0" result="hardAlpha"/>
<feOffset dy="2.73848"/>
<feGaussianBlur stdDeviation="5.47696"/>
<feComposite in2="hardAlpha" operator="out"/>
<feColorMatrix type="matrix" values="0 0 0 0 0 0 0 0 0 0 0 0 0 0 0 0 0 0 0.25 0"/>
<feBlend mode="normal" in2="BackgroundImageFix" result="effect1_dropShadow_16_107"/>
<feBlend mode="normal" in="SourceGraphic" in2="effect1_dropShadow_16_107" result="shape"/>
</filter>
<filter id="filter2_d_16_107" x="0.0460711" y="100.015" width="120.446" height="92.9848" filterUnits="userSpaceOnUse" color-interpolation-filters="sRGB">
<feFlood flood-opacity="0" result="BackgroundImageFix"/>
<feColorMatrix in="SourceAlpha" type="matrix" values="0 0 0 0 0 0 0 0 0 0 0 0 0 0 0 0 0 0 127 0" result="hardAlpha"/>
<feOffset dy="2.73848"/>
<feGaussianBlur stdDeviation="5.47696"/>
<feComposite in2="hardAlpha" operator="out"/>
<feColorMatrix type="matrix" values="0 0 0 0 0 0 0 0 0 0 0 0 0 0 0 0 0 0 0.25 0"/>
<feBlend mode="normal" in2="BackgroundImageFix" result="effect1_dropShadow_16_107"/>
<feBlend mode="normal" in="SourceGraphic" in2="effect1_dropShadow_16_107" result="shape"/>
</filter>
<linearGradient id="paint0_linear_16_107" x1="86.2083" y1="0" x2="86.2083" y2="210.179" gradientUnits="userSpaceOnUse">
<stop stop-color="#CCB0FF"/>
<stop offset="0.0001" stop-color="#D6C0FF"/>
<stop offset="0.270833" stop-color="white"/>
<stop offset="1" stop-color="#AA8AE7"/>
</linearGradient>
<linearGradient id="paint1_linear_16_107" x1="60.6731" y1="134.615" x2="60.6731" y2="170.692" gradientUnits="userSpaceOnUse">
<stop stop-color="#F3C00A" stop-opacity="0.68"/>
<stop offset="1" stop-color="#F4A814" stop-opacity="0"/>
</linearGradient>
<linearGradient id="paint2_linear_16_107" x1="60.6731" y1="134.615" x2="60.6731" y2="170.692" gradientUnits="userSpaceOnUse">
<stop stop-color="#F3C00A" stop-opacity="0.68"/>
<stop offset="1" stop-color="#F4A814" stop-opacity="0"/>
</linearGradient>
<clipPath id="clip0_16_107">
<rect x="31.4387" width="109.539" height="210.179" rx="10.2693" fill="white"/>
</clipPath>
</defs>
</svg>
